<?xml version="1.0" encoding="UTF-8"?> <!-- Creator: CorelDRAW 2018 (64-Bit) --> <svg xmlns="http://www.w3.org/2000/svg" xmlns:xlink="http://www.w3.org/1999/xlink" xml:space="preserve" width="11.8365mm" height="13.2637mm" style="shape-rendering:geometricPrecision; text-rendering:geometricPrecision; image-rendering:optimizeQuality; fill-rule:evenodd; clip-rule:evenodd" viewBox="0 0 1534.67 1719.71"> <defs> <style type="text/css"> <![CDATA[ .fil0 {fill:#FCE07F} ]]> </style> </defs> <g id="Слой_x0020_1"> <metadata id="CorelCorpID_0Corel-Layer"></metadata> <path class="fil0" d="M1510.97 1036.21c-62.48,-17.41 -737.58,469.75 -803.8,522.69 -103.35,82.59 -99.38,240.74 100.55,112.35 49.54,-31.82 501.64,-336.55 553.1,-371.1 93.56,-62.81 229,-118.19 150.15,-263.94zm-115.3 -696.95c-42.36,-36.24 -577.81,-227.67 -642.12,-248.26 -75.82,-24.25 -253.04,-100.82 -318.55,-89.93 -80.13,165.34 97.37,207.37 275.52,280.28 274.26,112.24 725.23,276.55 685.15,57.92zm24.75 554.91l4.43 -139.44c-124.43,-42.32 -1027.69,34.42 -1226.15,38.12 -76.72,1.43 -175.31,-16.79 -194.55,59.94 -37.59,150 187.4,109.3 406.73,108.86 125.65,-0.27 925.22,-11.95 1009.54,-67.47z"></path> </g> </svg> 