<?xml version="1.0" encoding="UTF-8"?> <!-- Creator: CorelDRAW 2018 (64-Bit) --> <svg xmlns="http://www.w3.org/2000/svg" xmlns:xlink="http://www.w3.org/1999/xlink" xml:space="preserve" width="28.4064mm" height="37.9634mm" style="shape-rendering:geometricPrecision; text-rendering:geometricPrecision; image-rendering:optimizeQuality; fill-rule:evenodd; clip-rule:evenodd" viewBox="0 0 3059.22 4088.45"> <defs> <style type="text/css"> <![CDATA[ .fil0 {fill:white} ]]> </style> </defs> <g id="Слой_x0020_1"> <metadata id="CorelCorpID_0Corel-Layer"></metadata> <path class="fil0" d="M2832 540.14c8.13,10.62 33.98,28.58 57.64,58.14 9.94,12.42 15.77,21.43 24.22,35.81 8.49,14.44 12.09,26.84 24.87,35.29 27.9,-48.58 52.17,-95.99 102.12,-129 20.88,-13.8 16.39,-10.3 18.37,-18.73 -25.76,-12.91 -39.88,-11.94 -63.18,-29.54 -18.98,-14.33 -31.76,-34.53 -48.04,-45.54 -11.89,8.09 -14.17,16.48 -24.66,27.7 -8.07,8.63 -16.5,15.27 -26.78,23.89 -16.78,14.06 -45.19,33.18 -64.54,41.98zm-2270.05 760.54l13.83 77.16c15.13,80.76 39.11,164.71 57.23,244.7 5.62,24.8 16.2,102.13 29.19,112.76 35.22,28.79 216.28,-58.42 257.62,-72.73 65.94,-22.84 190.1,-73.59 242.3,-112.05 66.31,-48.85 134.37,-114.57 79.37,-204.72 -59.31,-97.19 -240.07,-95.26 -343.08,-81.56 2.4,-3.28 121.65,-92.55 148.5,-116.53 34.97,-31.22 103.15,-85.32 111.08,-138.32 6.13,-41.02 -31.09,-63.04 -53.93,-71.22 -96.06,-34.39 -426.65,125.28 -531.66,166.5 -31.35,19.83 -39.76,39.08 -33.32,81.48 5.29,34.84 15.37,80.17 22.89,114.51zm320.52 -248.81c-55.84,29.43 -108.71,58.72 -165.67,89.35 -31.57,16.97 -57.38,25.66 -52.85,64.04 9.33,78.86 72.79,19.7 146.78,-24.5 30.28,-18.09 130.57,-76.18 141.17,-105.17 10.04,-27.47 -21.21,-49.14 -69.43,-23.71zm126.85 433.06c12.16,-9.68 23.5,-22 30.55,-33.84 19.31,-32.37 6.71,-64.48 -22.42,-78.67 -49.63,-24.18 -147.33,9.16 -212.78,25.17 -18.49,4.52 -37.17,9.11 -54.86,16.15 -19.64,7.82 -26,11.47 -26.35,32.84 -0.38,22.03 13.07,94.91 28.4,105.45 16.92,11.64 76.59,5.24 103.12,-4.37 34.31,-12.43 138,-49.71 154.35,-62.73zm-404.73 -1034.01l22.9 -20.17c85.05,-76.78 142.95,-44.81 137.14,-108.83 -2.07,-22.72 -3.28,-15.86 3.61,-27.55l-10.62 -13.41c-7.51,-19.72 -8.6,-38.76 -34.37,-38.85 -61.74,-0.19 -169.05,59.66 -215.66,96.26 -65.24,51.24 -122.65,139.23 -133.28,226.87 -12.7,104.68 -4.39,211.24 49.56,315.92 46.73,90.67 130.98,135.18 227.3,132.54 100.63,-2.75 174.99,-88.64 205.47,-175.93 26.65,-76.34 37.07,-190.07 40.68,-283.1 5,-128.71 -2.35,-109.23 -251.48,-48.85 -36.39,8.82 -59.33,10.18 -56.77,43.35 1.87,24.13 5.22,60.4 11.79,85.16 11.93,45.01 30.32,20.38 108.97,2.02 8.11,-1.9 15.58,-2.32 20.04,-3.49 6.02,-1.59 16.52,-5.04 23.04,-6.99 1.84,14.31 -0.25,36.1 -0.26,51.65 0,83.16 -5.8,187.72 -115.77,184.71 -36.16,-0.99 -61.29,-15.86 -81.04,-41.59 -41.65,-54.27 -54.32,-151.77 -39.43,-211.88 10.49,-42.29 33.88,-89.68 58.67,-123.64 9.92,-13.58 18.81,-21.44 29.51,-34.21zm1344.24 254.51c-15.83,5.89 -60.7,59.17 -71.97,74.59 -16.82,23.03 -33.64,60.44 -24.43,103.48 24.99,116.71 195.85,113.31 227.06,216.32 13.04,43.01 -8.02,78.34 -29.87,102.96 -53.65,60.46 -118.23,71.94 -121.62,104.8 -1.71,16.58 12.68,79.28 25.56,98.09 18.17,26.53 58.82,6.08 77.44,-8.22 71.72,-55.09 97.66,-73.44 160.9,-140.55 44.59,-47.32 74.88,-139.21 56.27,-206.45 -21.71,-78.41 -78.61,-119.22 -154.64,-141.79 -31.83,-9.46 -79.44,-16.22 -86.2,-58.38 26,-33.55 49.41,-40.23 97.66,-58.83 65.97,-25.44 56.24,-19.23 62.1,-83.87 4.16,-45.72 14.67,-96.9 -39.59,-89.38 -46.46,6.44 -86.4,26.45 -123.29,45.65 -10.33,5.52 -20.07,11.71 -29.53,18.55 -7.52,5.45 -21.5,14.98 -25.85,23.05zm-597.95 175.6c-144.24,27.38 -110.13,354.08 -48.16,483.2 25.76,53.65 61.91,90.74 119.02,94.15 115.59,6.89 155.45,-163.62 145.24,-256.3 -6.28,-57.05 -22.26,-144.44 -42.81,-197.89 -35.4,-92.07 -75.62,-135.05 -173.29,-123.16zm8.68 133.23c-37.51,20.83 -33.43,94.72 -29.65,141.68 3.07,38.15 20.11,148.8 81.28,112.89 35.74,-20.99 36.43,-95.27 32.64,-139.55 -2.23,-26.12 -7.38,-67.4 -22.12,-88.63 -11.98,-17.27 -37.78,-39.91 -62.15,-26.39zm586.68 -567.43c-7.19,-21.26 -14.33,-90.38 -18.58,-117.72 -9.44,-60.89 -26.34,-127.38 -34.17,-186.88 -2.53,-19.23 -2.76,-39.35 -7.24,-59.9 -8.04,-36.92 -0.64,-100.03 -54.71,-77.65 -141.39,58.52 -115.55,13.8 -90.83,162.47l20.79 123.26c5.38,73.68 32.05,171.31 44.12,245.41 2.75,16.88 7.13,48.07 12.1,63.16 7.78,23.62 26.07,20.26 49.13,12.64 79.19,-26.17 154.15,-55.15 234.48,-79.39 35.81,-10.8 91.94,-12.51 95.82,-50.55 2.76,-26.96 -9.88,-97.6 -30.95,-110.39 -28.14,-17.08 -156.77,61.89 -219.97,75.54zm-296.58 834.21c-34.29,38.29 -22.77,38.62 -12.04,100.38 11.58,66.63 23.49,66.63 112.67,-1.16 89.29,-67.87 122.16,-161.52 87.71,-268.45 -6.53,-20.27 -14.56,-37.12 -24.79,-52.18 -27.8,-40.96 -96.28,-106.17 -86.92,-147.09 6.36,-27.8 32.45,-45.07 35,-62.26 1.57,-10.55 -33.29,-92.46 -40.83,-103.12 -27.57,-39.02 -64.33,7.02 -81.62,26.89 -37.52,43.07 -82.59,98.25 -59.11,182 39.98,142.57 203.17,176.29 69.94,324.98zm-630.02 -839.86c-61.5,22.31 -56.42,-2.04 -46.17,72.95 7.86,57.43 21.16,169.03 30.93,218.92 11.48,58.72 29.28,47.98 81.75,36.39 82.68,-18.27 39.14,-57.24 23.87,-185.76 -20.46,-172.26 -16.13,-169.43 -90.38,-142.5zm262.57 -165.73l7.68 31.71c7.3,27.44 8.91,53.17 37.8,47.83 46.36,-8.58 145.2,-58.56 160.07,-107.01 7.75,-25.28 -4.62,-43.85 -26.69,-50.5 -26.73,-8.06 -122.18,16.7 -152.7,25.84 -25.22,7.54 -30.38,26.69 -26.16,52.13zm-44.04 406.92c8.59,29.66 17.89,59.26 25.39,89.91 9.08,37.11 10.16,58.1 49.99,51.68 18.14,-2.93 75.27,-15.94 84.85,-29.82 19.23,-27.85 -13.02,-219.62 -19.05,-256.05 5.79,1.8 24.17,22.08 30.75,27.66 50.81,43 125.52,75.87 187.86,106.63 79.83,39.38 58.17,3.96 81.02,-56.44 4.45,-11.76 14.65,-28.72 15.09,-41.69 0.76,-22.27 -37.24,-37.39 -66.15,-53.13 -35.44,-19.3 -126.05,-73.06 -138.17,-108.47 17.09,-13.97 41.76,-27.18 60.98,-41.48 20.66,-15.39 36.7,-30.67 55.54,-47.21 40.87,-35.94 73.39,-61.04 89.47,-107.1 21.01,-60.19 -13.53,-106.17 -53.29,-129.93 -125.15,-74.79 -369.23,18.04 -489.41,66.67 -32.94,13.33 -26.42,19.71 -15.67,71 36.55,174.43 52.67,291.76 100.79,457.78zm-278.51 -472.75c-106.05,48.04 -62.59,184.08 38.99,150.46 39.35,-13.02 64.64,-56.79 57.18,-97.18 -8.38,-45.34 -51.32,-73.59 -96.16,-53.28zm973.52 3606.72c107.02,-15.26 217.12,-11.24 324.71,-19.92 29.76,-2.41 38.83,-42.12 12.1,-56.4 -220.29,-117.69 -462.33,-174.36 -700.2,-243.87 250.5,-35.6 504.9,-34.03 757.48,-23.22 30.87,1.31 37.38,-43.63 12.12,-56.38 -255.46,-128.73 -536.19,-171.84 -814.3,-223.67 252.96,-39.99 511.88,-35.65 765.6,-1.66 33.64,4.54 49.74,-38.24 19.82,-55.73 -139.81,-81.7 -286.16,-149.34 -436.32,-209.66 -35.43,-14.22 -62.71,38.85 -26.98,53.19 103.31,41.48 204.75,86.6 303.56,137.22 -264.44,-22.78 -531.07,-11.81 -790.65,48.16 -29.8,6.86 -24.62,51.68 2.95,57.48 271.01,56.95 550.06,88.17 809.08,186.61 -248.25,-5.57 -496.27,3.37 -740.93,50.9 -32.41,6.27 -21.66,49.53 2.91,57.48 235.29,76.08 479.31,125.99 705.41,226.13 -110.53,4.12 -221.28,6.82 -327.93,38.63 -29.58,8.83 -24.69,50.25 2.94,57.49 94.15,24.71 185.32,64.66 274.41,103.31 55.17,23.94 109.43,49.93 162.34,78.5 24.04,12.97 56.08,40.03 78.71,57.1 38.74,29.17 75.49,-8.58 38.54,-43.28 -84.57,-79.38 -300.74,-169.21 -435.37,-218.39zm-151.62 -919.86c8.03,-10.8 9.93,-26.32 -1.95,-38.91 -52.46,-55.61 -266.58,-290.52 -324.28,-359.13 -4.22,-5 -8.91,-7.74 -13.67,-8.98 -0.26,-0.11 -0.41,-0.25 -0.66,-0.34 -95.09,-40.36 -495.88,-238.49 -600.7,-288.52 -208.7,-99.55 -417.55,-198.63 -622.14,-306.49 -13.75,-7.25 -26.53,-2.9 -34.7,5.96 -136.87,65.8 -214.9,260.1 -171.39,403.08 0.12,0.4 0.3,0.71 0.47,1.09 -0.06,9.33 4.43,18.59 15.27,24.31 204.56,107.88 413.41,207.05 622.16,306.54 104.83,49.92 507.79,249.27 608.59,292.06 8.81,3.76 16.68,3.06 23,-0.27 158.17,-1.23 324.04,-9.42 479.46,-17.47 11.19,-0.58 17.68,-5.86 20.52,-12.91zm-587.15 -84.85c-17,-29.91 -33.87,-59.54 -46.69,-91.54 -3.36,-8.3 -2.68,-15.51 0.34,-21.3 2.9,-11.29 11.81,-20.55 27.12,-20.29 11.24,0.16 22.45,0.19 33.67,0.24 -294.26,-134.73 -590.47,-269.81 -875.02,-423.29 -22.63,50.93 -34.41,103.75 -26.21,148.22 123.08,60.69 246.91,119.85 370.77,178.92 87.34,41.69 380.21,186.24 530.42,256.6 -4.58,-9.29 -9.24,-18.53 -14.4,-27.56zm-1099.36 -515.51c-24.26,-120.05 50.15,-258.36 156.89,-317.58 -15.14,-7.82 -30.35,-15.49 -45.44,-23.4 -107.54,57.82 -170.87,210.62 -138.11,327.23 8.83,4.64 17.78,9.12 26.65,13.75zm368.39 -210.91c115.74,56.85 232.06,112.37 348.48,167.82 86.21,41.11 373.84,183.11 529.43,256.09 -35.31,2.91 -70.18,5.48 -104.85,6.18 -22.84,0.51 -35.98,27.51 -25.04,45.06 14.94,23.99 28.46,48.82 42.25,73.48 -299.93,-137.4 -602.15,-274.76 -892.29,-431.24 29.07,-47.92 65.92,-90.18 102.03,-117.39zm2005.07 -1357.52c31.49,17.11 80.07,72.28 104.6,99.98 16.57,-16.47 26.41,-44.79 43.87,-67.36 15.44,-19.95 44.85,-43.44 54.28,-57.99 -0.81,-0.88 -2.12,-3.39 -2.53,-2.56l-52.44 -40.68c-31.31,-28.63 -33.77,-39.87 -48.16,-53.47 -44.03,70.38 -88.27,98.24 -99.63,122.08zm185.86 359.11c10.07,11.51 34.24,16.76 66.23,42.02 14,11.06 43.49,49.38 56,53.33 28.86,-32.91 56.51,-83.67 95.78,-101.44 -16.43,-19.01 -23.5,-9.86 -55.12,-34.68 -18.14,-14.24 -27.56,-27.83 -40.67,-40.9 -17.96,5.98 -38.51,41.34 -88.51,62.93 -14.12,6.1 -24.31,6.89 -33.72,18.74zm-1118.07 1770.67c15.96,-40.54 34.17,-80.04 52.86,-119.37 -61.13,-67.44 -123.9,-137.44 -158.68,-177.45 -47.36,4.38 -90.59,10.34 -139.87,17.09 21.53,38.53 42.28,77.5 69.02,112.86 8.08,10.72 6.95,21.33 1.2,29.35 -4.77,12.89 -17.04,23.76 -34.14,21.75 -34.63,-4.18 -69.55,-3.84 -104.41,-3.56 11.5,20.33 24.1,40.03 33.59,61.32 10.21,23.08 20.8,45.86 33.67,67.51 83.82,-1.82 165.59,-4.65 246.27,-7.72 0.18,-0.59 0.26,-1.18 0.51,-1.79zm-1289.72 -484.03c-24.36,-12.17 -48.62,-24.49 -72.87,-36.84 -0.61,-1.42 -1.16,-2.83 -2,-4.29 -68.17,-115.07 31.78,-284.69 149.7,-317.96 27.86,14.14 55.84,28.09 83.81,41.98 -85.71,76.32 -157.71,203.45 -158.63,317.11z"></path> </g> </svg> 