<?xml version="1.0" encoding="UTF-8"?> <!-- Creator: CorelDRAW 2018 (64-Bit) --> <svg xmlns="http://www.w3.org/2000/svg" xmlns:xlink="http://www.w3.org/1999/xlink" xml:space="preserve" width="24.505mm" height="32.8287mm" style="shape-rendering:geometricPrecision; text-rendering:geometricPrecision; image-rendering:optimizeQuality; fill-rule:evenodd; clip-rule:evenodd" viewBox="0 0 681.5 912.98"> <defs> <style type="text/css"> <![CDATA[ .fil0 {fill:white} .fil4 {fill:#FEFEFE;fill-rule:nonzero} .fil2 {fill:#FAEF74;fill-rule:nonzero} .fil3 {fill:white;fill-rule:nonzero} .fil1 {fill:white;fill-rule:nonzero} ]]> </style> </defs> <g id="Слой_x0020_1"> <metadata id="CorelCorpID_0Corel-Layer"></metadata> <path class="fil0" d="M52.56 177.69l4.53 2.52c5.43,3.14 6.92,6.06 10.62,10.91 2.33,-2.26 2.87,-5.31 5.6,-8.64 2.24,-2.73 5.06,-4.7 7.19,-6.97l-1.54 -1.26c-0.64,-0.38 -1.26,-0.6 -1.89,-0.94 -6,-3.23 -7.27,-6.72 -10.17,-8.1 -2.46,2.16 -4.04,4.52 -6.43,6.69 -2.39,2.18 -5.17,4.47 -7.92,5.77z"></path> <path class="fil0" d="M7.21 238.02l9.6 6.9c2.09,1.78 1.58,1.8 3.51,2.56l6.06 -7.37c2.06,-2.51 3.93,-4.84 6.4,-6.64l-2.82 -2.26c-4.02,-2.45 -7.16,-5.53 -9.06,-6.66 -5.94,7.47 -12.29,11.05 -13.69,13.47z"></path> <path class="fil0" d="M-0 170.41l8.39 13.99 9.48 -9.61c1.25,-1.13 2.46,-1.98 3.47,-3.06 -1.5,-1.35 -4.24,-2.29 -6.35,-3.93 -2.21,-1.72 -3.33,-4.41 -5.46,-5.6 -1.17,0.58 -0.26,0 -1.18,0.7l-3.49 3.4c-1.52,1.47 -3.38,2.67 -4.85,4.1z"></path> <path class="fil1" d="M391.64 75.73c-7.75,-12.03 -27.73,-2 -19.94,10.1 13.76,21.42 7.23,43.47 -1.57,65.47 -5.34,13.38 16.01,20 21.34,6.69 10.84,-27.15 16.95,-56.15 0.18,-82.26zm-268.03 -74.96c-26.92,10.03 -36.33,35.28 -44.76,60.53 -4.56,13.63 17.38,18.04 21.9,4.52 5.59,-16.77 11.57,-37.02 29.74,-43.78 13.48,-5.02 6.66,-26.31 -6.88,-21.27zm242.84 209.96c-7.09,12.34 -17.02,22.69 -24.12,35.02 -7.19,12.51 -25.94,0.34 -18.8,-12.11 7.09,-12.33 17.03,-22.69 24.12,-35.02 7.2,-12.51 25.94,-0.34 18.8,12.11zm-53.89 -72.22c-10.29,53.43 -68.6,90.68 -99.83,132.74 -24.35,-52.11 -59.44,-94.99 -64.59,-153.68 -2.14,-24.46 19.82,-84.42 53.12,-57.99 19.34,15.35 20.92,53.96 21.42,76.63 0.25,10.99 16.48,14.53 21.11,4.46 16.73,-36.41 81.69,-69.29 68.77,-2.16zm19.95 -40.13c-21.05,-42.22 -63.86,-21.95 -90.18,5.93 -3.49,-22.35 -10.94,-43.87 -25.98,-61.21 -18.55,-21.4 -49.19,-13.06 -66.16,4.25 -69.4,70.81 19.63,177.67 48.18,243.18 3.9,8.94 15,13.2 19.01,7.73 33.12,-45.04 148.29,-133.34 115.14,-199.88z"></path> <path class="fil2" d="M470.63 547.63c7.67,-3.05 12,-7.55 12.62,-16.59 -9.81,4.36 -19.9,7.75 -30.6,11.43 4.35,4.89 10.68,8.06 17.98,5.16z"></path> <path class="fil2" d="M504.39 429.64c-0.21,-0.51 -0.37,-1.07 -0.47,-1.66 -2.44,-14.19 -6.86,-27.84 -10.95,-41.59 -4.07,33.3 -9.26,77.22 -12.99,108.8 6.78,-18.29 15.62,-41.99 24.41,-65.55z"></path> <path class="fil2" d="M542.27 373.34c-13.39,37.56 -36.83,97.69 -49.93,132.59 14.71,-19.51 40.29,-54.46 63.66,-86.84 -4.78,-15.21 -9.57,-30.39 -13.72,-45.76z"></path> <path class="fil2" d="M439.23 530.36c0.07,-0.03 0.14,-0.05 0.21,-0.07 -50.55,-14.27 -156.51,-42.34 -201.04,-59.49 1.05,10.32 1.88,21.65 2.96,30.85 67.96,10.19 167.45,23.5 197.7,28.66 0.06,0.01 0.11,0.04 0.18,0.05z"></path> <path class="fil2" d="M269.83 431.56c1.27,10.8 2.37,22.45 3.75,31.28 0.12,0.81 0.1,1.53 0,2.23 34.22,10.62 78.38,23.4 116.13,34.49 -42.11,-23.33 -91.55,-50.83 -119.87,-68z"></path> <path class="fil2" d="M499.84 521.13c-0.33,0.42 -0.7,0.78 -1.08,1.12 0.19,0.51 0.36,1.07 0.46,1.69 8.36,50.06 35.91,222.3 47.91,293.26 28.91,-33.13 95.74,-112.6 118.58,-141.25 -11.56,-56.87 -46.38,-228.22 -60.36,-298.72 -27.18,40.1 -85.62,118.92 -105.5,143.9z"></path> <path class="fil3" d="M281.09 601.43c30.29,0.21 77.5,4.96 106.75,10.23 6.62,40.88 12.08,80 17.44,121.87 -30.86,-4.6 -75.29,-6 -106.41,-8.9 -5.98,-45.83 -11.15,-75.33 -17.78,-123.19zm120.65 1.15c-0.77,-2.33 -2.65,-4.32 -5.84,-4.96 -32.2,-6.39 -91.06,-12.39 -123.68,-11.68 -3.85,0.08 -5.97,2.47 -6.57,5.34 -0.76,1.22 -1.11,2.79 -0.83,4.71 8.15,54.88 12.87,85.41 19.69,137.51 0.85,6.51 7.66,8.44 11.97,6.26 32.72,3.53 86.13,6.96 116.51,10.56 6.49,0.76 9.84,-4.99 8.68,-9.66 -5.13,-44.27 -13.67,-90.48 -19.42,-136.13 -0.09,-0.72 -0.28,-1.36 -0.5,-1.96zm263.96 73.37c-22.84,28.65 -89.67,108.12 -118.58,141.25 -12,-70.96 -39.54,-243.2 -47.91,-293.26 -0.11,-0.62 -0.27,-1.18 -0.46,-1.69 0.37,-0.34 0.74,-0.7 1.08,-1.12 19.88,-24.98 78.32,-103.8 105.5,-143.9 13.98,70.5 48.8,241.85 60.36,298.72zm-138.93 177.67c-9.01,4.34 -15.8,-3.53 -20.7,-10.04 -8.16,-24.6 -35.85,-202.34 -52.53,-281.54 6.38,2.83 13.65,3.51 21.33,0.81 5.56,-1.96 10.13,-5.14 13.8,-9.14 11.96,73.29 35.98,222.32 45.29,276.96 -0.37,0.97 -0.56,2.07 -0.49,3.31 0.37,7.18 0.82,16.01 -6.71,19.64zm-277.86 -35.32c-23.67,-128.96 -27.64,-179.94 -51.93,-307.26 51.86,11.2 190.85,27.46 236.54,33.19 13.23,65.14 45.85,242.79 57.12,300.25 -51.62,-6.05 -200.36,-24.76 -241.63,-26.18 -0.04,-0.01 -0.08,0.01 -0.11,0.01zm-10.51 -347.5c44.52,17.15 150.49,45.22 201.04,59.49 -0.07,0.03 -0.14,0.05 -0.21,0.07 -0.06,-0.01 -0.11,-0.04 -0.18,-0.05 -30.24,-5.16 -129.73,-18.47 -197.7,-28.66 -1.08,-9.19 -1.91,-20.53 -2.96,-30.85zm35.17 -7.96c-1.37,-8.84 -2.48,-20.48 -3.75,-31.28 28.33,17.17 77.77,44.67 119.87,68 -37.74,-11.09 -81.91,-23.87 -116.13,-34.49 0.09,-0.7 0.12,-1.42 -0,-2.23zm219.38 -76.45c4.1,13.75 8.52,27.4 10.95,41.59 0.1,0.6 0.26,1.15 0.47,1.66 -8.79,23.56 -17.64,47.26 -24.41,65.55 3.73,-31.58 8.92,-75.5 12.99,-108.8zm-0.62 119.54c13.11,-34.9 36.54,-95.03 49.93,-132.59 4.16,15.37 8.94,30.55 13.72,45.76 -23.37,32.37 -48.95,67.32 -63.66,86.84zm-9.09 25.1c-0.62,9.04 -4.95,13.55 -12.62,16.59 -7.3,2.9 -13.63,-0.27 -17.98,-5.16 10.7,-3.68 20.79,-7.07 30.6,-11.43zm127.33 -179.51c-3.15,-0.68 -6.82,0.22 -9.14,3.61 -7.16,10.48 -19.74,28.22 -34.16,48.3 -5.72,-18.07 -11.34,-36.15 -15.23,-54.72 -0.55,-2.66 -2.14,-4.45 -4.08,-5.5 -3.8,-2.81 -10.94,-1.91 -13.17,4.27 -4.61,12.76 -12.36,33.66 -20.98,56.81 -4.58,-17.95 -9.79,-36.78 -15.96,-53.52 -0.15,-0.39 -0.4,-0.67 -0.59,-1.02 -1.08,-7.6 -14.54,-6.16 -15.45,3 -3.85,38.3 -15.91,133.59 -20.37,169.04 -0.49,-0.27 -1.01,-0.51 -1.57,-0.71 -1.01,-0.35 -2.12,-0.73 -3.28,-1.12 -39.42,-24.02 -152.22,-83.75 -191.97,-109.96 -1.59,-1.04 -3.17,-1.41 -4.63,-1.29 -4.41,-0.21 -8.88,2.76 -7.87,8.33 2.21,12.16 4.28,29.32 5.62,43.03 -9.87,-3.18 -18.42,-6.05 -25.1,-8.52 -4.99,-2.55 -12.48,0.17 -11.35,7.22 1.84,11.44 3.44,27.26 4.49,40.51 -14.41,-2.23 -26.64,-4.23 -35.57,-5.89 -5.06,-2.32 -12.24,0.37 -10.95,7.26 26,139.67 29.04,188.77 54.92,324.59 0.93,4.9 5.32,6.9 9.23,6.45 1.19,1.2 2.84,2.02 5.02,2.1 40.89,1.41 207.62,22.41 250.78,27.23 0.66,0.08 1.28,0.06 1.85,0 7.83,7.18 17.03,10.81 29.18,7.83 14.55,-3.57 18.53,-18.11 18.75,-31.24 26.28,-28.7 110.87,-126.9 131.05,-155.08 1.47,-2.06 1.73,-4.07 1.18,-5.79 0.01,-0.59 -0.05,-1.2 -0.18,-1.83 -12.07,-59.14 -53.73,-265.08 -64.27,-318.39 -0.76,-3.81 -3.38,-5.23 -6.2,-4.99z"></path> <path class="fil4" d="M611.95 596.25c-17.03,16.24 -34.02,31.92 -46.29,52.22 -5.18,8.57 8.91,15.08 14.02,6.62 11.47,-18.98 28.23,-33.69 44.12,-48.84 7.24,-6.91 -4.7,-16.82 -11.85,-10zm-49.12 14.02c11.96,-16.1 26.38,-30.07 41.57,-43.11 7.52,-6.46 -1.34,-19.19 -8.93,-12.68 -16.17,13.89 -31.75,28.63 -44.49,45.79 -5.95,8 5.89,18.03 11.85,10zm-27.56 -51.12c12.28,-19.95 30.26,-34.63 46.67,-50.99 7.02,-7 18.95,2.92 11.86,10 -15.28,15.22 -33.08,29.04 -44.5,47.61 -5.18,8.41 -19.27,1.9 -14.03,-6.62z"></path> <path class="fil3" d="M122.34 601.42c-3.69,-1.03 -7.84,-2.08 -12.13,-3.13 0.83,-4.18 1.82,-8.51 3.18,-13.4 2.67,-9.63 -12.62,-12.2 -15.27,-2.66 -1.24,4.51 -2.19,8.54 -2.99,12.41 -4,-0.99 -7.88,-1.97 -11.34,-2.94 -9.62,-2.69 -12.18,12.61 -2.65,15.28 3.46,0.97 7.34,1.95 11.34,2.94 -0.57,3.79 -1.15,7.75 -1.86,12.2 -1.57,9.86 13.7,12.53 15.28,2.65 0.64,-4.04 1.18,-7.7 1.7,-11.19 4.27,1.05 8.41,2.09 12.08,3.11 9.62,2.7 12.18,-12.6 2.65,-15.28z"></path> <path class="fil3" d="M218.63 897.54c-1.13,0.86 -2.25,1.33 -3.3,1.49 -5.69,0.85 -9.59,-7.46 -4.5,-12.16 6.89,-6.37 15.71,4.61 7.8,10.67zm-4.83 -27.05c-15.6,0.06 -23.03,15.86 -19.91,28.03 2.61,10.18 13.28,17.62 26.4,13.13 8.69,-2.97 15.54,-12.91 16.22,-21.89 1.05,-13.76 -10.56,-19.31 -22.72,-19.27z"></path> </g> </svg> 