<?xml version="1.0" encoding="UTF-8"?> <!-- Generator: Adobe Illustrator 23.1.1, SVG Export Plug-In . SVG Version: 6.00 Build 0) --> <svg xmlns="http://www.w3.org/2000/svg" xmlns:xlink="http://www.w3.org/1999/xlink" id="Capa_1" x="0px" y="0px" viewBox="0 0 512 512" style="enable-background:new 0 0 512 512;" xml:space="preserve"> <style type="text/css"> .st0{fill:none;stroke:#6BCAD0;stroke-width:20;stroke-miterlimit:10;} .st1{fill:#6BCAD0;} </style> <circle class="st0" cx="255.5" cy="256" r="244.5"></circle> <g> <path class="st1" d="M175.8,354.5c-11.1,0-20.9-1.4-29.3-4.2c-8.5-2.8-15.6-6.7-21.3-11.6c-5.7-4.9-10.1-10.7-13.1-17.5 c-3-6.7-4.5-14-4.5-21.8c0-12.7,3.5-23,10.5-30.7c7-7.7,16.2-13.1,27.7-16.2v-2.2c-9.8-3.5-17.7-8.9-23.6-16.4 c-5.9-7.5-8.9-16.6-8.9-27.6c0-7.3,1.4-13.9,4.2-19.9c2.8-6,6.9-11.1,12.1-15.4c5.3-4.3,11.8-7.6,19.6-10 c7.8-2.4,16.6-3.5,26.5-3.5s18.6,1.2,26.5,3.5c7.8,2.4,14.4,5.7,19.6,10c5.3,4.3,9.3,9.4,12.1,15.4c2.8,6,4.2,12.6,4.2,19.9 c0,10.9-3,20.1-8.9,27.6c-5.9,7.5-13.8,12.9-23.6,16.4v2.2c11.5,3.1,20.7,8.5,27.7,16.2c7,7.7,10.5,18,10.5,30.7 c0,7.8-1.5,15.1-4.5,21.8c-3,6.7-7.4,12.5-13.1,17.5c-5.7,4.9-12.8,8.8-21.3,11.6C196.7,353.1,186.9,354.5,175.8,354.5z M175.3,330.3c11.6,0,20.5-2.7,26.9-8c6.3-5.3,9.5-12.8,9.5-22.3v-5.5c0-9.6-3.2-17-9.5-22.3c-6.3-5.3-15.3-8-26.9-8 c-11.6,0-20.5,2.7-26.9,8c-6.3,5.3-9.5,12.8-9.5,22.3v5.5c0,9.6,3.2,17,9.5,22.3C154.8,327.7,163.7,330.3,175.3,330.3z M175.8,240.5c10.7,0,18.9-2.3,24.5-6.9c5.6-4.6,8.4-11.4,8.4-20.2v-4.7c0-8.9-2.8-15.6-8.4-20.2c-5.6-4.6-13.8-6.9-24.5-6.9 c-10.7,0-18.9,2.3-24.5,6.9c-5.6,4.6-8.4,11.4-8.4,20.2v4.7c0,8.9,2.8,15.6,8.4,20.2C156.9,238.2,165.1,240.5,175.8,240.5z"></path> <path class="st1" d="M326.8,334.2v-54.1h-50.2v-24.6h50.2v-54.1h27.5v54.1h50.2v24.6h-51.2v54.1H326.8z"></path> </g> </svg> 