<?xml version="1.0" encoding="UTF-8"?> <svg xmlns="http://www.w3.org/2000/svg" id="Слой_1" data-name="Слой 1" viewBox="0 0 145.46 84"> <defs> <style>.cls-1,.cls-3{fill:#fff;}.cls-1,.cls-10,.cls-12,.cls-13,.cls-14,.cls-15,.cls-4,.cls-5,.cls-7,.cls-8{fill-rule:evenodd;}.cls-16,.cls-2{fill:none;}.cls-2{stroke:#fff;stroke-linecap:round;stroke-linejoin:round;stroke-width:2.13px;}.cls-4{fill:#afca05;}.cls-5,.cls-6{fill:#0057a5;}.cls-7{fill:#52a331;}.cls-8{fill:#2d7c8b;}.cls-10,.cls-9{fill:#e5e585;}.cls-11{fill:#78ad29;}.cls-12{fill:#a977b2;}.cls-13{fill:#c69eca;}.cls-14{fill:#f1f7f6;}.cls-15{fill:#2d4b5c;}</style> </defs> <title>лого с пузырями</title> <path class="cls-1" d="M155.14,169.3a13,13,0,0,1-1.45,8.23c-1.34,2.21.61,6.3,0,9.09-0.57,2.57-6,3.5-7.92,5.12-3.09,2.56-3.36,5.5-8,7.11,1.4,1.9,7.18,1.26,9.27-1.58a9.39,9.39,0,0,1,1.58-1.71c3.13-2.61,7.16-1.37,9.13-5.65a9.36,9.36,0,0,0,.81-4.59c-0.22-2.71-.65-4.75.07-6.34A7.62,7.62,0,0,0,155.14,169.3Z" transform="translate(-64.32 -137.3)"></path> <path class="cls-2" d="M155.14,169.3a13,13,0,0,1-1.45,8.23c-1.34,2.21.61,6.3,0,9.09-0.57,2.57-6,3.5-7.92,5.12-3.09,2.56-3.36,5.5-8,7.11,1.4,1.9,7.18,1.26,9.27-1.58a9.39,9.39,0,0,1,1.58-1.71c3.13-2.61,7.16-1.37,9.13-5.65a9.36,9.36,0,0,0,.81-4.59c-0.22-2.71-.65-4.75.07-6.34A7.62,7.62,0,0,0,155.14,169.3Z" transform="translate(-64.32 -137.3)"></path> <path class="cls-1" d="M133.4,138.36c1.37,0,4.81.57,5.1,4.46s-3.62,5.49-4,8.28c-0.45,3.72,3.57,5.17,3.49,9.13-0.1,4.84-3.44,5.11-3.12,10.52,0.47,8,6.25,8.59,7.14,15.88,0.52,4.25-.9,9.22-5.25,14.37l-1.51-1.05c-1-6.26,2.61-7.16.8-11.76-2.76-7-7.58-8.39-8.31-15.73-0.59-5.93,3.22-6.54,4.11-12.13,0.65-4.09-2.08-5.51-1.54-9.61,0.49-3.64,4.2-6.21,4.1-9.95A4.32,4.32,0,0,0,133.4,138.36Z" transform="translate(-64.32 -137.3)"></path> <path class="cls-2" d="M133.4,138.36c1.37,0,4.81.57,5.1,4.46s-3.62,5.49-4,8.28c-0.45,3.72,3.57,5.17,3.49,9.13-0.1,4.84-3.44,5.11-3.12,10.52,0.47,8,6.25,8.59,7.14,15.88,0.52,4.25-.9,9.22-5.25,14.37l-1.51-1.05c-1-6.26,2.61-7.16.8-11.76-2.76-7-7.58-8.39-8.31-15.73-0.59-5.93,3.22-6.54,4.11-12.13,0.65-4.09-2.08-5.51-1.54-9.61,0.49-3.64,4.2-6.21,4.1-9.95A4.32,4.32,0,0,0,133.4,138.36Z" transform="translate(-64.32 -137.3)"></path> <path class="cls-1" d="M143,146.56c6.29,12.59-2.79,13.25-4.45,21.86-0.8,4.11,3.53,7.48,2.7,12-0.94,5.14-4.63,5.41-6.06,9.5-1.28,3.65-1.76,7.92.9,11,0,0-8.59-6.54-8.73-13.51-0.09-4.65,4.24-6.12,5.79-9.46,1.36-2.93-2.2-7.52-1.92-10.92C131.88,159.67,143.67,157.07,143,146.56Z" transform="translate(-64.32 -137.3)"></path> <path class="cls-2" d="M143,146.56c6.29,12.59-2.79,13.25-4.45,21.86-0.8,4.11,3.53,7.48,2.7,12-0.94,5.14-4.63,5.41-6.06,9.5-1.28,3.65-1.76,7.92.9,11,0,0-8.59-6.54-8.73-13.51-0.09-4.65,4.24-6.12,5.79-9.46,1.36-2.93-2.2-7.52-1.92-10.92C131.88,159.67,143.67,157.07,143,146.56Z" transform="translate(-64.32 -137.3)"></path> <path class="cls-3" d="M143.48,148.12c1.41,5.6,0,8.11-3.1,12-2.38,2.94-3.89,5.19-4.51,7.4s-0.36,4.39.79,7.23c2.09,5.18-1,8.21-3.27,10.43-0.31.3-.6,0.59-0.87,0.88a5.82,5.82,0,0,0-1.82,4.08c0,1.67.84,3.69,3,6.15l-0.36.28c-2.28-2.55-3.14-4.66-3.15-6.43a6.22,6.22,0,0,1,1.93-4.37c0.26-.28.57-0.57,0.89-0.89,2.18-2.14,5.16-5.05,3.17-10-1.18-2.93-1.45-5.2-.8-7.49s2.17-4.57,4.59-7.55c3-3.74,4.57-6.16,3.4-11.68Z" transform="translate(-64.32 -137.3)"></path> <path class="cls-2" d="M143.48,148.12c1.41,5.6,0,8.11-3.1,12-2.38,2.94-3.89,5.19-4.51,7.4s-0.36,4.39.79,7.23c2.09,5.18-1,8.21-3.27,10.43-0.31.3-.6,0.59-0.87,0.88a5.82,5.82,0,0,0-1.82,4.08c0,1.67.84,3.69,3,6.15l-0.36.28c-2.28-2.55-3.14-4.66-3.15-6.43a6.22,6.22,0,0,1,1.93-4.37c0.26-.28.57-0.57,0.89-0.89,2.18-2.14,5.16-5.05,3.17-10-1.18-2.93-1.45-5.2-.8-7.49s2.17-4.57,4.59-7.55c3-3.74,4.57-6.16,3.4-11.68Z" transform="translate(-64.32 -137.3)"></path> <path class="cls-1" d="M123.4,145.89s4.44,6.25,1.25,10.84-5,6.84-2.23,10.94,6.57,6.49,6.08,12a9.47,9.47,0,0,0,1.34,6.27c2.06,3.29,7,6.53,7.46,10.44A6.74,6.74,0,0,1,136,201c-1.77-.38-13.51-8.3-13.37-13.3s4-11.26-2.85-16.19-5.09-12.23-1.42-15.77S123.4,152.21,123.4,145.89Z" transform="translate(-64.32 -137.3)"></path> <path class="cls-2" d="M123.4,145.89s4.44,6.25,1.25,10.84-5,6.84-2.23,10.94,6.57,6.49,6.08,12a9.47,9.47,0,0,0,1.34,6.27c2.06,3.29,7,6.53,7.46,10.44A6.74,6.74,0,0,1,136,201c-1.77-.38-13.51-8.3-13.37-13.3s4-11.26-2.85-16.19-5.09-12.23-1.42-15.77S123.4,152.21,123.4,145.89Z" transform="translate(-64.32 -137.3)"></path> <path class="cls-1" d="M152.51,155.89s-2.36,2.71-1.67,5.28S150,166.6,148,168.75s-2.71,6.19-1.25,10.15,0.07,6.53-2.64,7.92-5.9,3.54-5.41,7.64-1.82,5.8-2.75,6.3a0.15,0.15,0,0,0,.16.22c1.29,0.08,5.51-.06,6.27-2.49,0.9-2.92-.49-4.59,3.33-6.32s7.91-2.92,6.25-11.74-0.35-8.83,1.46-11.81,0.83-6.19-.14-8.2A10,10,0,0,1,152.51,155.89Z" transform="translate(-64.32 -137.3)"></path> <path class="cls-2" d="M152.51,155.89s-2.36,2.71-1.67,5.28S150,166.6,148,168.75s-2.71,6.19-1.25,10.15,0.07,6.53-2.64,7.92-5.9,3.54-5.41,7.64-1.82,5.8-2.75,6.3a0.15,0.15,0,0,0,.16.22c1.29,0.08,5.51-.06,6.27-2.49,0.9-2.92-.49-4.59,3.33-6.32s7.91-2.92,6.25-11.74-0.35-8.83,1.46-11.81,0.83-6.19-.14-8.2A10,10,0,0,1,152.51,155.89Z" transform="translate(-64.32 -137.3)"></path> <path class="cls-1" d="M147.31,147.14c1.4,1.09,2.92,3,2.08,5.05s-2.08,3-1.11,5.51,1.8,5.84-1,9.52-1.46,7.85.14,10.77c1,1.8,2.61,6,2.32,9.48-0.65,8-12.53,13-13.63,13.35,1.16-5.59,7.52-7.28,7.52-13.88,0-2.23-1.27-4.42-2.77-6.48-2.46-3.38-3.5-10.47.87-14.29,3.89-3.4,5.15-5.45,4.49-7.8s-1.33-4.81.13-7.07A5.25,5.25,0,0,0,147.31,147.14Z" transform="translate(-64.32 -137.3)"></path> <path class="cls-2" d="M147.31,147.14c1.4,1.09,2.92,3,2.08,5.05s-2.08,3-1.11,5.51,1.8,5.84-1,9.52-1.46,7.85.14,10.77c1,1.8,2.61,6,2.32,9.48-0.65,8-12.53,13-13.63,13.35,1.16-5.59,7.52-7.28,7.52-13.88,0-2.23-1.27-4.42-2.77-6.48-2.46-3.38-3.5-10.47.87-14.29,3.89-3.4,5.15-5.45,4.49-7.8s-1.33-4.81.13-7.07A5.25,5.25,0,0,0,147.31,147.14Z" transform="translate(-64.32 -137.3)"></path> <path class="cls-1" d="M112.33,174.6c1,1.34,5.53,2.49,7.22,5.28,2,3.37-.9,10.15,3.82,12,3,1.18,5.08,2.32,6.11,4.95s6.15,4.2,6.15,4.2-7.34,1.42-9.42-1.43-4.16-3.2-7.08-4-4.72-4.52-4.44-8c0.22-2.71.65-4.75-.07-6.34C113.44,178.72,112.09,178,112.33,174.6Z" transform="translate(-64.32 -137.3)"></path> <path class="cls-2" d="M112.33,174.6c1,1.34,5.53,2.49,7.22,5.28,2,3.37-.9,10.15,3.82,12,3,1.18,5.08,2.32,6.11,4.95s6.15,4.2,6.15,4.2-7.34,1.42-9.42-1.43-4.16-3.2-7.08-4-4.72-4.52-4.44-8c0.22-2.71.65-4.75-.07-6.34C113.44,178.72,112.09,178,112.33,174.6Z" transform="translate(-64.32 -137.3)"></path> <path class="cls-3" d="M123.92,147.49c0.53,2.3,1.15,6.48-1.67,9.43a9.91,9.91,0,0,0-3,5.84,7.06,7.06,0,0,0,1.87,5.48,27.81,27.81,0,0,1,4.58,7,10.73,10.73,0,0,1,1.1,5.95c-0.16.89-.38,1.69-0.58,2.42-0.71,2.53-1.2,4.32,2.1,7.09,4.41,3.7,7.31,10.07,7.32,10.09l-0.41.19s-2.87-6.3-7.2-9.93c-3.53-3-3-4.87-2.25-7.56a24.09,24.09,0,0,0,.57-2.38,10.29,10.29,0,0,0-1.06-5.69,27.37,27.37,0,0,0-4.5-6.84,7.5,7.5,0,0,1-2-5.82,10.37,10.37,0,0,1,3.08-6.11c2.68-2.8,2.37-6.88,1.86-9.08Z" transform="translate(-64.32 -137.3)"></path> <path class="cls-2" d="M123.92,147.49c0.53,2.3,1.15,6.48-1.67,9.43a9.91,9.91,0,0,0-3,5.84,7.06,7.06,0,0,0,1.87,5.48,27.81,27.81,0,0,1,4.58,7,10.73,10.73,0,0,1,1.1,5.95c-0.16.89-.38,1.69-0.58,2.42-0.71,2.53-1.2,4.32,2.1,7.09,4.41,3.7,7.31,10.07,7.32,10.09l-0.41.19s-2.87-6.3-7.2-9.93c-3.53-3-3-4.87-2.25-7.56a24.09,24.09,0,0,0,.57-2.38,10.29,10.29,0,0,0-1.06-5.69,27.37,27.37,0,0,0-4.5-6.84,7.5,7.5,0,0,1-2-5.82,10.37,10.37,0,0,1,3.08-6.11c2.68-2.8,2.37-6.88,1.86-9.08Z" transform="translate(-64.32 -137.3)"></path> <circle class="cls-3" cx="81.91" cy="52.51" r="1.94"></circle> <circle class="cls-2" cx="81.91" cy="52.51" r="1.94"></circle> <path class="cls-1" d="M124.29,159.26c-2.91,1.74-4.35,4.86-2.11,10.09s0.56,7.3-.76,9.05c-2.53,3.36-2.66,8.73-.27,10.15s3.64,5.49,4,7.62,5.31,5.35,11.29,4.82c0,0-5.1-1.87-5.26-5.08s-0.16-5.94-2.29-7.36-3.32-4.57-1.58-6.73,3.24-8.25.84-11.68S122.31,163.19,124.29,159.26Z" transform="translate(-64.32 -137.3)"></path> <path class="cls-2" d="M124.29,159.26c-2.91,1.74-4.35,4.86-2.11,10.09s0.56,7.3-.76,9.05c-2.53,3.36-2.66,8.73-.27,10.15s3.64,5.49,4,7.62,5.31,5.35,11.29,4.82c0,0-5.1-1.87-5.26-5.08s-0.16-5.94-2.29-7.36-3.32-4.57-1.58-6.73,3.24-8.25.84-11.68S122.31,163.19,124.29,159.26Z" transform="translate(-64.32 -137.3)"></path> <path class="cls-3" d="M122.74,162.75c0.17,4.73,3.6,7.36,3.48,11.89a10.79,10.79,0,0,1-1.73,5.74,5.75,5.75,0,0,0-1.14,4.14,6.21,6.21,0,0,0,2.26,3.8,11.42,11.42,0,0,1,2.71,3.1,5.69,5.69,0,0,1,.67,3.16,4.86,4.86,0,0,0,1.73,4.09,11.25,11.25,0,0,0,5.85,2l0,0.34c-2.75-.27-5-1-6.13-2a5.34,5.34,0,0,1-1.9-4.49,5.23,5.23,0,0,0-.61-2.9,11,11,0,0,0-2.6-3,6.69,6.69,0,0,1-2.43-4.1,6.23,6.23,0,0,1,1.23-4.48,10.28,10.28,0,0,0,1.65-5.48h0c0.12-4.51-3.48-7.43-3-12.14Z" transform="translate(-64.32 -137.3)"></path> <path class="cls-2" d="M122.74,162.75c0.17,4.73,3.6,7.36,3.48,11.89a10.79,10.79,0,0,1-1.73,5.74,5.75,5.75,0,0,0-1.14,4.14,6.21,6.21,0,0,0,2.26,3.8,11.42,11.42,0,0,1,2.71,3.1,5.69,5.69,0,0,1,.67,3.16,4.86,4.86,0,0,0,1.73,4.09,11.25,11.25,0,0,0,5.85,2l0,0.34c-2.75-.27-5-1-6.13-2a5.34,5.34,0,0,1-1.9-4.49,5.23,5.23,0,0,0-.61-2.9,11,11,0,0,0-2.6-3,6.69,6.69,0,0,1-2.43-4.1,6.23,6.23,0,0,1,1.23-4.48,10.28,10.28,0,0,0,1.65-5.48h0c0.12-4.51-3.48-7.43-3-12.14Z" transform="translate(-64.32 -137.3)"></path> <path class="cls-4" d="M155.14,169.3a13,13,0,0,1-1.45,8.23c-1.34,2.21.61,6.3,0,9.09-0.57,2.57-6,3.5-7.92,5.12-3.09,2.56-3.36,5.5-8,7.11,1.4,1.9,7.18,1.26,9.27-1.58a9.39,9.39,0,0,1,1.58-1.71c3.13-2.61,7.16-1.37,9.13-5.65a9.36,9.36,0,0,0,.81-4.59c-0.22-2.71-.65-4.75.07-6.34a7.62,7.62,0,0,0-3.47-9.67" transform="translate(-64.32 -137.3)"></path> <path class="cls-5" d="M133.4,138.36c1.37,0,4.81.57,5.1,4.46s-3.62,5.49-4,8.28c-0.45,3.72,3.57,5.17,3.49,9.13-0.1,4.84-3.44,5.11-3.12,10.52,0.47,8,6.25,8.59,7.14,15.88,0.52,4.25-.9,9.22-5.25,14.37l-1.51-1.05c-1-6.26,2.61-7.16.8-11.76-2.76-7-7.58-8.39-8.31-15.73-0.59-5.93,3.22-6.54,4.11-12.13,0.65-4.09-2.08-5.51-1.54-9.61,0.49-3.64,4.2-6.21,4.1-9.95a4.32,4.32,0,0,0-1-2.41" transform="translate(-64.32 -137.3)"></path> <path class="cls-4" d="M143,146.56c6.29,12.59-2.79,13.25-4.45,21.86-0.8,4.11,3.53,7.48,2.7,12-0.94,5.14-4.63,5.41-6.06,9.5-1.28,3.65-1.76,7.92.9,11,0,0-8.59-6.54-8.73-13.51-0.09-4.65,4.24-6.12,5.79-9.46,1.36-2.93-2.2-7.52-1.92-10.92,0.62-7.42,12.41-10,11.77-20.53" transform="translate(-64.32 -137.3)"></path> <path class="cls-6" d="M143.48,148.12c1.41,5.6,0,8.11-3.1,12-2.38,2.94-3.89,5.19-4.51,7.4s-0.36,4.39.79,7.23c2.09,5.18-1,8.21-3.27,10.43-0.31.3-.6,0.59-0.87,0.88a5.82,5.82,0,0,0-1.82,4.08c0,1.67.84,3.69,3,6.15l-0.36.28c-2.28-2.55-3.14-4.66-3.15-6.43a6.22,6.22,0,0,1,1.93-4.37c0.26-.28.57-0.57,0.89-0.89,2.18-2.14,5.16-5.05,3.17-10-1.18-2.93-1.45-5.2-.8-7.49s2.17-4.57,4.59-7.55c3-3.74,4.57-6.16,3.4-11.68Z" transform="translate(-64.32 -137.3)"></path> <path class="cls-7" d="M123.4,145.89s4.44,6.25,1.25,10.84-5,6.84-2.23,10.94,6.57,6.49,6.08,12a9.47,9.47,0,0,0,1.34,6.27c2.06,3.29,7,6.53,7.46,10.44A6.74,6.74,0,0,1,136,201c-1.77-.38-13.51-8.3-13.37-13.3s4-11.26-2.85-16.19-5.09-12.23-1.42-15.77,5-3.55,5-9.87" transform="translate(-64.32 -137.3)"></path> <path class="cls-7" d="M152.51,155.89s-2.36,2.71-1.67,5.28S150,166.6,148,168.75s-2.71,6.19-1.25,10.15,0.07,6.53-2.64,7.92-5.9,3.54-5.41,7.64-1.82,5.8-2.75,6.3a0.15,0.15,0,0,0,.16.22c1.29,0.08,5.51-.06,6.27-2.49,0.9-2.92-.49-4.59,3.33-6.32s7.91-2.92,6.25-11.74-0.35-8.83,1.46-11.81,0.83-6.19-.14-8.2a10,10,0,0,1-.76-4.52" transform="translate(-64.32 -137.3)"></path> <path class="cls-8" d="M147.31,147.14c1.4,1.09,2.92,3,2.08,5.05s-2.08,3-1.11,5.51,1.8,5.84-1,9.52-1.46,7.85.14,10.77c1,1.8,2.61,6,2.32,9.48-0.65,8-12.53,13-13.63,13.35,1.16-5.59,7.52-7.28,7.52-13.88,0-2.23-1.27-4.42-2.77-6.48-2.46-3.38-3.5-10.47.87-14.29,3.89-3.4,5.15-5.45,4.49-7.8s-1.33-4.81.13-7.07a5.25,5.25,0,0,0,.94-4.17" transform="translate(-64.32 -137.3)"></path> <path class="cls-7" d="M112.33,174.6c1,1.34,5.53,2.49,7.22,5.28,2,3.37-.9,10.15,3.82,12,3,1.18,5.08,2.32,6.11,4.95s6.15,4.2,6.15,4.2-7.34,1.42-9.42-1.43-4.16-3.2-7.08-4-4.72-4.52-4.44-8c0.22-2.71.65-4.75-.07-6.34-1.17-2.61-2.52-3.34-2.29-6.72" transform="translate(-64.32 -137.3)"></path> <path class="cls-9" d="M123.92,147.49c0.53,2.3,1.15,6.48-1.67,9.43a9.91,9.91,0,0,0-3,5.84,7.06,7.06,0,0,0,1.87,5.48,27.81,27.81,0,0,1,4.58,7,10.73,10.73,0,0,1,1.1,5.95c-0.16.89-.38,1.69-0.58,2.42-0.71,2.53-1.2,4.32,2.1,7.09,4.41,3.7,7.31,10.07,7.32,10.09l-0.41.19s-2.87-6.3-7.2-9.93c-3.53-3-3-4.87-2.25-7.56a24.09,24.09,0,0,0,.57-2.38,10.29,10.29,0,0,0-1.06-5.69,27.37,27.37,0,0,0-4.5-6.84,7.5,7.5,0,0,1-2-5.82,10.37,10.37,0,0,1,3.08-6.11c2.68-2.8,2.37-6.88,1.86-9.08Z" transform="translate(-64.32 -137.3)"></path> <path class="cls-10" d="M146.23,191.75a1.94,1.94,0,1,0-1.94-1.94,1.94,1.94,0,0,0,1.94,1.94" transform="translate(-64.32 -137.3)"></path> <path class="cls-4" d="M124.29,159.26c-2.91,1.74-4.35,4.86-2.11,10.09s0.56,7.3-.76,9.05c-2.53,3.36-2.66,8.73-.27,10.15s3.64,5.49,4,7.62,5.31,5.35,11.29,4.82c0,0-5.1-1.87-5.26-5.08s-0.16-5.94-2.29-7.36-3.32-4.57-1.58-6.73,3.24-8.25.84-11.68-5.83-7-3.85-10.89" transform="translate(-64.32 -137.3)"></path> <path class="cls-11" d="M122.74,162.75c0.17,4.73,3.6,7.36,3.48,11.89a10.79,10.79,0,0,1-1.73,5.74,5.75,5.75,0,0,0-1.14,4.14,6.21,6.21,0,0,0,2.26,3.8,11.42,11.42,0,0,1,2.71,3.1,5.69,5.69,0,0,1,.67,3.16,4.86,4.86,0,0,0,1.73,4.09,11.25,11.25,0,0,0,5.85,2l0,0.34c-2.75-.27-5-1-6.13-2a5.34,5.34,0,0,1-1.9-4.49,5.23,5.23,0,0,0-.61-2.9,11,11,0,0,0-2.6-3,6.69,6.69,0,0,1-2.43-4.1,6.23,6.23,0,0,1,1.23-4.48,10.28,10.28,0,0,0,1.65-5.48h0c0.12-4.51-3.48-7.43-3-12.14Z" transform="translate(-64.32 -137.3)"></path> <path class="cls-9" d="M124.21,197.93a11.72,11.72,0,0,1,.39-3.78,10.79,10.79,0,0,1,1.86-3.7h0a13.12,13.12,0,0,1,5-3.89,17.69,17.69,0,0,1,6.84-1.52,15.92,15.92,0,0,1,9.46,2.65,12,12,0,0,1,4.84,7l7.81-.89a4.33,4.33,0,0,1,4.82,4.56l-0.52,9.85a4.34,4.34,0,0,1-1,2.56,4.21,4.21,0,0,1-2.32,1.41h0l-40.1,9a4.45,4.45,0,0,1-3.11-.43,4.28,4.28,0,0,1-2-2.36l-4.76-13.68a4.31,4.31,0,0,1-.22-1.92h0A4.32,4.32,0,0,1,115,199Zm1.32-3.52a10.86,10.86,0,0,0-.33,3.88v0a0.48,0.48,0,0,1-.43.53l-9.62,1.09a3.4,3.4,0,0,0-3,3h0a3.37,3.37,0,0,0,.17,1.49l4.76,13.68a3.32,3.32,0,0,0,1.56,1.84,3.49,3.49,0,0,0,2.44.34l40.1-9h0a3.25,3.25,0,0,0,1.79-1.09,3.38,3.38,0,0,0,.77-2l0.52-9.85a3.44,3.44,0,0,0-.23-1.45,3.36,3.36,0,0,0-3.53-2.1l-8.21.93a0.48,0.48,0,0,1-.55-0.38,11,11,0,0,0-4.55-6.85,15,15,0,0,0-8.89-2.48,16.71,16.71,0,0,0-6.47,1.44,12.16,12.16,0,0,0-4.67,3.6h0A9.81,9.81,0,0,0,125.52,194.4Z" transform="translate(-64.32 -137.3)"></path> <path class="cls-7" d="M115.12,200.13l10.73-1.22c-2.68-15,23.43-17.71,25.38-2.89L160.5,195a2.76,2.76,0,0,1,3.06,2.9L163,207.73a2.68,2.68,0,0,1-2.08,2.51l-40.1,9a2.78,2.78,0,0,1-3.27-1.77l-4.76-13.68a2.76,2.76,0,0,1,2.29-3.64" transform="translate(-64.32 -137.3)"></path> <path class="cls-3" d="M159.48,202.42c0.44,2.93-1.34,3.92-4,4.22l-1.13-6.7c2.27-.48,4.7-0.52,5.14,2.48m-3.71-1.52,0.74,4.38a2.26,2.26,0,0,0,2.08-2.78C158.27,200.91,157.17,200.79,155.77,200.89Z" transform="translate(-64.32 -137.3)"></path> <polygon class="cls-3" points="83.3 63.11 83.71 68.48 86.09 68.32 86.28 70.27 83.02 70.55 82.29 63.3 83.3 63.11"></polygon> <polygon class="cls-3" points="61.7 74.43 60.53 74.75 59.47 70.14 59.46 74.5 58.12 74.74 56.26 70.2 57.16 75.14 55.8 75.44 54.47 68.03 56.45 67.64 58.24 72.38 58.35 67.17 60.11 66.77 61.7 74.43"></polygon> <path class="cls-3" d="M127.82,203.3l3.32,7.34-1.22.5-1.07-2.35-1.37.13,0.1,2.46-1,0,0-7.79Zm-0.42,2.26,0.06,2.55,1-.09Z" transform="translate(-64.32 -137.3)"></path> <polygon class="cls-3" points="77.52 70.96 76.44 71.25 75.48 67.01 75.45 71.02 74.22 71.24 72.52 67.05 73.03 70.9 71.78 71.17 70.89 65.06 72.71 64.7 74.34 69.07 74.46 64.28 76.08 63.92 77.52 70.96"></polygon> <path class="cls-3" d="M145.57,203.77a6.16,6.16,0,0,1-2.84.51c0.1,1.12.25,2.57,1.61,2.46a1.44,1.44,0,0,0,1.18-1.52,4.41,4.41,0,0,1,.69,0,1.94,1.94,0,0,1-1.76,2.13c-1.76.16-2.45-1.13-2.7-2.56s0.33-3.16,2-3.35,2.59,1.81,1.84,2.33m-2.86-.28c0.29,0,1.89.1,2.27-.31s-0.33-1.25-1.21-1.12A1.37,1.37,0,0,0,142.71,203.49Z" transform="translate(-64.32 -137.3)"></path> <path class="cls-3" d="M152.43,200l2.59,6.49-1.08.38-0.84-2.08-1.19.06V207H151l0.33-6.75ZM152,202l0,2.21,0.9,0Z" transform="translate(-64.32 -137.3)"></path> <path class="cls-3" d="M132.45,207.06l0.74,2.82-1.27.33-1.58-6.92c4.38-2,5.66,2.35,2.11,3.76m-0.8-3.37,0.52,2.21C134.06,205.67,133.84,203.16,131.65,203.69Z" transform="translate(-64.32 -137.3)"></path> <path class="cls-3" d="M132.39,206.72a1.14,1.14,0,0,1,1.25,1l0.58,1.48c0.6,1.51,1.31,2.87,2.67,2.32,0.75-.3,1.24-1,0.75-2.24l-0.55.22a0.8,0.8,0,0,1-.5,1c-0.34.12-.78-0.07-1.37-1.68l-0.54-1.48a1.39,1.39,0,0,0-1.61-1.06Z" transform="translate(-64.32 -137.3)"></path> <path class="cls-3" d="M131.74,198.63l1.41-.21a1.31,1.31,0,0,0,1.24,1.31,1,1,0,0,0,.93-1.31c-0.77-1.63-3.42-.61-3.7-3.41a2.09,2.09,0,0,1,2.05-2.52c1.36-.08,1.88,1.33,2,2.67l-1.1.06c0-.54-0.2-1.6-0.94-1.53a1,1,0,0,0-.88,1.29c0.2,2.23,3.49,1.29,3.69,3.57a2.2,2.2,0,0,1-2.15,2.29c-1.52.06-2.16-.61-2.57-2.2" transform="translate(-64.32 -137.3)"></path> <path class="cls-3" d="M143.64,191.86l2.6,8-1.33.38-0.84-2.57-1.44,0-0.18,2.57-1.09-.08,0.92-8.09Zm-0.7,2.3-0.23,2.66,1.09,0Z" transform="translate(-64.32 -137.3)"></path> <path class="cls-3" d="M140.59,195.81a6.42,6.42,0,0,1-3,.53c0.1,1.17.26,2.68,1.68,2.57a1.5,1.5,0,0,0,1.24-1.58,4.43,4.43,0,0,1,.72,0,2,2,0,0,1-1.84,2.23c-1.84.16-2.56-1.18-2.82-2.68s0.34-3.3,2.06-3.51,2.71,1.89,1.93,2.44m-3-.29c0.3,0,2,.1,2.37-0.32s-0.35-1.31-1.26-1.17A1.43,1.43,0,0,0,137.59,195.52Z" transform="translate(-64.32 -137.3)"></path> <path class="cls-9" d="M172.41,144a0.36,0.36,0,1,1,.69.19c-0.37,1.3-.78,3.26-2.51,3.21-1.26,0-1.79-1-2.15-2.07-0.35,1-.91,2.07-2.15,2.07s-1.81-1.07-2.16-2.09c-0.36,1-.93,2.12-2.16,2.09-1.62,0-2.14-2-2.49-3.21a0.36,0.36,0,0,1,.69-0.19c0.24,0.87.64,2.66,1.82,2.69s1.55-1.8,1.79-2.64a0.38,0.38,0,0,1,.26-0.29,0.36,0.36,0,0,1,.44.25c0.25,0.88.59,2.68,1.81,2.68s1.55-1.73,1.79-2.63a0.39,0.39,0,0,1,.26-0.3,0.36,0.36,0,0,1,.44.25c0.26,0.94.56,2.65,1.82,2.69s1.55-1.8,1.8-2.69" transform="translate(-64.32 -137.3)"></path> <path class="cls-12" d="M168.46,157.54a4.09,4.09,0,0,1,3.5,1.9,4.18,4.18,0,0,1-7,0,4.09,4.09,0,0,1,3.5-1.9" transform="translate(-64.32 -137.3)"></path> <path class="cls-13" d="M169.49,157.67a4,4,0,0,1,2.47,1.77A4.06,4.06,0,0,1,169,161.3a1.69,1.69,0,0,1-1.05-1.17,2.29,2.29,0,0,1,1.5-2.46" transform="translate(-64.32 -137.3)"></path> <path class="cls-12" d="M162.63,161.17a4,4,0,0,0,2.31-1.73,4,4,0,0,0-2.31-1.73,3.61,3.61,0,0,0,.54,1.73,3.61,3.61,0,0,0-.54,1.73" transform="translate(-64.32 -137.3)"></path> <path class="cls-14" d="M170,159.82a0.7,0.7,0,1,0-.7-0.7,0.7,0.7,0,0,0,.7.7" transform="translate(-64.32 -137.3)"></path> <path class="cls-15" d="M170,159.5a0.42,0.42,0,1,0-.43-0.43,0.43,0.43,0,0,0,.43.43" transform="translate(-64.32 -137.3)"></path> <path class="cls-10" d="M104.16,157.84a1.61,1.61,0,1,0-1.6-1.61,1.61,1.61,0,0,0,1.6,1.61" transform="translate(-64.32 -137.3)"></path> <path class="cls-9" d="M106.4,148.45a2.43,2.43,0,1,1-1.72.71,2.43,2.43,0,0,1,1.72-.71m1.38,1.05a2,2,0,1,0,.57,1.38A2,2,0,0,0,107.79,149.5Z" transform="translate(-64.32 -137.3)"></path> <path class="cls-10" d="M108.68,150.91a1.27,1.27,0,1,0-1.27-1.27,1.28,1.28,0,0,0,1.27,1.27" transform="translate(-64.32 -137.3)"></path> <path class="cls-10" d="M104.76,160.6a1,1,0,1,0-1-1,1,1,0,0,0,1,1" transform="translate(-64.32 -137.3)"></path> <path class="cls-10" d="M103.48,147.18a2.73,2.73,0,1,0-2.73-2.73,2.73,2.73,0,0,0,2.73,2.73" transform="translate(-64.32 -137.3)"></path> <path class="cls-10" d="M167.55,185.46a1.61,1.61,0,1,0-1.6-1.61,1.61,1.61,0,0,0,1.6,1.61" transform="translate(-64.32 -137.3)"></path> <path class="cls-9" d="M169.8,176.07a2.43,2.43,0,1,1-1.72.71,2.43,2.43,0,0,1,1.72-.71m1.38,1.05a2,2,0,1,0,.57,1.38A2,2,0,0,0,171.18,177.12Z" transform="translate(-64.32 -137.3)"></path> <path class="cls-10" d="M172.08,178.52a1.27,1.27,0,1,0-1.27-1.27,1.28,1.28,0,0,0,1.27,1.27" transform="translate(-64.32 -137.3)"></path> <path class="cls-10" d="M168.15,188.22a1,1,0,1,0-1-1,1,1,0,0,0,1,1" transform="translate(-64.32 -137.3)"></path> <path class="cls-10" d="M166.87,174.8a2.73,2.73,0,1,0-2.73-2.73,2.73,2.73,0,0,0,2.73,2.73" transform="translate(-64.32 -137.3)"></path> <path class="cls-10" d="M104.16,157.84a1.61,1.61,0,1,0-1.6-1.61,1.61,1.61,0,0,0,1.6,1.61" transform="translate(-64.32 -137.3)"></path> <path class="cls-9" d="M106.4,148.45a2.43,2.43,0,1,1-1.72.71,2.43,2.43,0,0,1,1.72-.71m1.38,1.05a2,2,0,1,0,.57,1.38A2,2,0,0,0,107.79,149.5Z" transform="translate(-64.32 -137.3)"></path> <path class="cls-10" d="M108.68,150.91a1.27,1.27,0,1,0-1.27-1.27,1.28,1.28,0,0,0,1.27,1.27" transform="translate(-64.32 -137.3)"></path> <path class="cls-10" d="M104.76,160.6a1,1,0,1,0-1-1,1,1,0,0,0,1,1" transform="translate(-64.32 -137.3)"></path> <path class="cls-10" d="M103.48,147.18a2.73,2.73,0,1,0-2.73-2.73,2.73,2.73,0,0,0,2.73,2.73" transform="translate(-64.32 -137.3)"></path> <path class="cls-9" d="M172.41,144a0.36,0.36,0,1,1,.69.19c-0.37,1.3-.78,3.26-2.51,3.21-1.26,0-1.79-1-2.15-2.07-0.35,1-.91,2.07-2.15,2.07s-1.81-1.07-2.16-2.09c-0.36,1-.93,2.12-2.16,2.09-1.62,0-2.14-2-2.49-3.21a0.36,0.36,0,0,1,.69-0.19c0.24,0.87.64,2.66,1.82,2.69s1.55-1.8,1.79-2.64a0.38,0.38,0,0,1,.26-0.29,0.36,0.36,0,0,1,.44.25c0.25,0.88.59,2.68,1.81,2.68s1.55-1.73,1.79-2.63a0.39,0.39,0,0,1,.26-0.3,0.36,0.36,0,0,1,.44.25c0.26,0.94.56,2.65,1.82,2.69s1.55-1.8,1.8-2.69" transform="translate(-64.32 -137.3)"></path> <path class="cls-12" d="M168.46,157.54a4.09,4.09,0,0,1,3.5,1.9,4.18,4.18,0,0,1-7,0,4.09,4.09,0,0,1,3.5-1.9" transform="translate(-64.32 -137.3)"></path> <path class="cls-13" d="M169.49,157.67a4,4,0,0,1,2.47,1.77A4.06,4.06,0,0,1,169,161.3a1.69,1.69,0,0,1-1.05-1.17,2.29,2.29,0,0,1,1.5-2.46" transform="translate(-64.32 -137.3)"></path> <path class="cls-12" d="M162.63,161.17a4,4,0,0,0,2.31-1.73,4,4,0,0,0-2.31-1.73,3.61,3.61,0,0,0,.54,1.73,3.61,3.61,0,0,0-.54,1.73" transform="translate(-64.32 -137.3)"></path> <path class="cls-14" d="M170,159.82a0.7,0.7,0,1,0-.7-0.7,0.7,0.7,0,0,0,.7.7" transform="translate(-64.32 -137.3)"></path> <path class="cls-15" d="M170,159.5a0.42,0.42,0,1,0-.43-0.43,0.43,0.43,0,0,0,.43.43" transform="translate(-64.32 -137.3)"></path> <path class="cls-10" d="M104.16,157.84a1.61,1.61,0,1,0-1.6-1.61,1.61,1.61,0,0,0,1.6,1.61" transform="translate(-64.32 -137.3)"></path> <path class="cls-9" d="M106.4,148.45a2.43,2.43,0,1,1-1.72.71,2.43,2.43,0,0,1,1.72-.71m1.38,1.05a2,2,0,1,0,.57,1.38A2,2,0,0,0,107.79,149.5Z" transform="translate(-64.32 -137.3)"></path> <path class="cls-10" d="M108.68,150.91a1.27,1.27,0,1,0-1.27-1.27,1.28,1.28,0,0,0,1.27,1.27" transform="translate(-64.32 -137.3)"></path> <path class="cls-10" d="M104.76,160.6a1,1,0,1,0-1-1,1,1,0,0,0,1,1" transform="translate(-64.32 -137.3)"></path> <path class="cls-10" d="M103.48,147.18a2.73,2.73,0,1,0-2.73-2.73,2.73,2.73,0,0,0,2.73,2.73" transform="translate(-64.32 -137.3)"></path> <path class="cls-10" d="M104.16,157.84a1.61,1.61,0,1,0-1.6-1.61,1.61,1.61,0,0,0,1.6,1.61" transform="translate(-64.32 -137.3)"></path> <path class="cls-9" d="M106.4,148.45a2.43,2.43,0,1,1-1.72.71,2.43,2.43,0,0,1,1.72-.71m1.38,1.05a2,2,0,1,0,.57,1.38A2,2,0,0,0,107.79,149.5Z" transform="translate(-64.32 -137.3)"></path> <path class="cls-10" d="M108.68,150.91a1.27,1.27,0,1,0-1.27-1.27,1.28,1.28,0,0,0,1.27,1.27" transform="translate(-64.32 -137.3)"></path> <path class="cls-10" d="M104.76,160.6a1,1,0,1,0-1-1,1,1,0,0,0,1,1" transform="translate(-64.32 -137.3)"></path> <path class="cls-10" d="M103.48,147.18a2.73,2.73,0,1,0-2.73-2.73,2.73,2.73,0,0,0,2.73,2.73" transform="translate(-64.32 -137.3)"></path> <rect class="cls-16" y="6.7" width="145.46" height="71.67"></rect> </svg> 