<?xml version="1.0" encoding="UTF-8"?> <!-- Creator: CorelDRAW 2019 (64-Bit) --> <svg xmlns="http://www.w3.org/2000/svg" xmlns:xlink="http://www.w3.org/1999/xlink" xml:space="preserve" width="81.0937mm" height="22.7188mm" style="shape-rendering:geometricPrecision; text-rendering:geometricPrecision; image-rendering:optimizeQuality; fill-rule:evenodd; clip-rule:evenodd" viewBox="0 0 4586.82 1285.02"> <defs> <style type="text/css"> <![CDATA[ .fil3 {fill:#FEFEFE;fill-rule:nonzero} .fil2 {fill:#BE343A;fill-rule:nonzero} .fil1 {fill:#615D5F;fill-rule:nonzero} .fil0 {fill:#5F5C5F;fill-rule:nonzero} ]]> </style> </defs> <g id="Слой_x0020_1"> <metadata id="CorelCorpID_0Corel-Layer"></metadata> <g id="_743531504"> <path class="fil0" d="M4495.17 831.23l0 21.55 -193.15 0 0 -21.55 43.3 0 0 -196.94c0,-35.72 0,-79.62 -47.09,-79.62 -25.54,0 -50.09,17.16 -65.65,38.91l-18.56 -14.76c19.75,-23.55 33.12,-36.32 61.86,-47.69 18.36,-7.78 38.91,-12.17 58.67,-12.17 14.56,0 29.93,2.6 43.9,6.38 53.08,15.16 65.65,49.68 65.65,99.36l0 206.54 51.08 0z"></path> <path class="fil0" d="M4263.72 831.23l0 21.55 -198.74 0 0 -21.55 52.28 0 0 -279.75 -52.28 0 0 -22.35 149.06 0 0 49.69 18.56 14.76c-7.18,9.79 -12.57,20.76 -15.37,31.11 -3.79,15.98 -3.19,33.13 -3.19,49.11l0 157.42 49.68 0z"></path> <path class="fil0" d="M4048.81 831.23l0 21.55 -193.35 0 0 -21.55 43.3 0 0 -196.94c0,-35.72 0,-79.62 -47.09,-79.62 -25.34,0 -49.88,17.16 -65.65,38.91l-18.56 -14.76c19.96,-23.55 33.33,-36.32 61.86,-47.69 18.56,-7.78 38.91,-12.17 58.67,-12.17 14.77,0 29.93,2.6 44.1,6.38 52.88,15.16 65.65,49.68 65.65,99.36l0 206.54 51.08 0z"></path> <path class="fil0" d="M3817.35 831.23l0 21.55 -198.94 0 0 -21.55 52.28 0 0 -279.75 -52.28 0 0 -22.35 149.05 0 0 49.69 18.56 14.76c-7.18,9.79 -12.57,20.76 -15.36,31.11 -3.8,15.98 -3.2,33.13 -3.2,49.11l0 157.42 49.89 0z"></path> <polygon class="fil0" points="3596.46,830.43 3596.46,852.78 3387.75,852.78 3387.75,830.43 3441.22,830.43 3441.22,425.17 3387.75,425.17 3387.75,402.82 3596.46,402.82 3596.46,425.17 3542.78,425.17 3542.78,830.43 "></polygon> <path class="fil0" d="M3280.39 831.23l0 21.55 -193.35 0 0 -21.55 43.3 0 0 -196.94c0,-35.72 0,-79.62 -47.09,-79.62 -25.35,0 -49.89,17.16 -65.65,38.91l-18.55 -14.76c19.75,-23.55 33.12,-36.32 61.86,-47.69 18.55,-7.78 38.91,-12.17 58.66,-12.17 14.57,0 29.93,2.6 43.9,6.38 53.07,15.16 65.84,49.68 65.84,99.36l0 206.54 51.08 0z"></path> <path class="fil0" d="M3048.74 831.23l0 21.55 -198.74 0 0 -21.55 52.28 0 0 -279.75 -52.28 0 0 -22.35 149.06 0 0 49.69 18.55 14.76c-7.18,9.79 -12.57,20.76 -15.36,31.11 -3.79,15.98 -3.19,33.13 -3.19,49.11l0 157.42 49.68 0z"></path> <path class="fil0" d="M2730.67 647.45l0 -45.29c0,-37.51 -11.37,-64.25 -54.67,-64.25 -69.64,0 -62.06,58.67 -62.65,109.55l117.33 0zm102.16 22.35l-221.49 0c0,13.37 0,26.73 0,40.1 0,57.46 5.19,127.72 80.41,127.72 58.07,0 89.99,-38.34 118.12,-83.62l19.16 9.59c-31.93,61.24 -74.03,97.95 -146.66,97.95 -100.77,0 -177.19,-69.24 -177.19,-172 0,-98.15 72.43,-169.39 170.81,-169.39 42.7,0 86,15.76 115.33,47.68 28.73,31.14 35.12,61.08 41.51,101.98z"></path> <path class="fil0" d="M2503.99 830.23l0 21.75 -149.25 0 0 -48.48 -17.96 -5.59c4.79,-7 8.58,-13.97 11.57,-20.94 8.98,-22.35 9.58,-60.47 9.58,-83.43 0,-30.52 0,-73.22 -13.97,-100.54 -3,-5.8 -6.99,-11.79 -11.37,-17.17l22.15 -4.99 0 -154.04 -51.09 0 0 -21.55 149.46 0 0 434.98 50.88 0z"></path> <path class="fil0" d="M2401.83 323l0 15.18 -135.88 0 0 -15.18 30.33 0 0 -138.67c0,-25.14 0,-56.07 -33.12,-56.07 -17.76,0 -35.12,11.98 -46.29,27.34l-12.77 -10.37c13.77,-16.57 23.15,-25.55 43.5,-33.53 12.97,-5.39 27.14,-8.59 41.11,-8.59 10.37,0 21.15,1.8 31.13,4.39 37.12,10.78 46.09,35.12 46.09,70.04l0 145.46 35.92 0z"></path> <path class="fil0" d="M2354.74 570.83l-22.15 4.99c-13.57,-16.35 -32.92,-29.32 -54.08,-29.32 -66.44,0 -68.44,97.38 -68.44,143.85 0,45.1 3.2,145.87 67.25,145.87 23.94,0 45.49,-17.97 59.46,-38.31l17.96 5.59c-25.54,37.7 -46.69,58.04 -95.38,58.04 -94.98,0 -151.65,-75.02 -151.65,-166.61 0,-32.52 6.58,-64.24 20.75,-91.98 14.16,-27.55 35.52,-50.89 65.05,-66.66 18.56,-9.57 40.31,-15.96 62.06,-15.96 43.5,0 72.23,17.96 99.17,50.48z"></path> <path class="fil0" d="M2239.01 323l0 15.18 -139.87 0 0 -15.18 36.71 0 0 -196.94 -36.71 0 0 -15.75 104.96 0 0 34.92 12.77 10.37c-4.99,6.98 -8.78,14.57 -10.58,21.95 -2.79,11.18 -2.19,23.34 -2.19,34.51l0 110.95 34.92 0z"></path> <path class="fil0" d="M2088.16 583.2c0,5.79 -0.8,11.37 -1.99,16.36 -5.99,21.95 -24.15,35.91 -49.49,35.91 -26.14,0 -49.29,-17.94 -49.29,-45.28 0,-20.35 13.57,-31.33 13.57,-36.32 0,-5.19 -6.39,-7.78 -10.97,-7.78 -10.18,0 -29.93,24.94 -35.12,31.93 -22.94,29.32 -31.13,69.43 -31.13,106.53l0 145.88 64.45 0 0 22.35 -214.3 0 0 -22.35 52.27 0 0 -279.16 -52.27 0 0 -22.14 150.44 0 0 58.47c24.15,-38.11 46.49,-68.64 96.38,-68.64 38.11,0 67.44,24.74 67.44,64.25z"></path> <path class="fil0" d="M1952.87 331.38c52.88,0 53.88,-58.05 53.48,-97.16l0 -14.37c-0.6,-41.3 4.79,-101.16 -53.88,-101.16 -56.07,0 -54.28,62.85 -54.28,103.35 0,20.36 -0.99,65.65 9.38,84.21 9.77,16.97 25.53,25.14 45.29,25.14zm0 -227.26c72.63,0 127.51,50.48 127.51,124.71 0,71.02 -57.07,115.53 -125.71,115.53 -45.09,0 -85.6,-17.75 -109.54,-49.49 -14.37,-18.96 -22.74,-43.31 -22.74,-71.83 0,-73.23 61.06,-118.92 130.49,-118.92z"></path> <path class="fil0" d="M1814.99 323l0 15.18 -60.66 0c-31.32,0 -57.26,-14.37 -57.26,-48.89l0 -163.82 -37.32 0 0 -15.16 37.32 0 0 -88 64.05 0 0 88 53.07 0 0 15.16 -53.07 0 0 197.54 53.86 0z"></path> <path class="fil0" d="M1614.66 741.44l0 -59.47c-51.28,3.2 -108.75,10.78 -108.75,75.24 0,31.92 19.16,56.86 53.07,56.86 12.18,0 24.35,-5.18 33.93,-12.77 19.15,-15.96 21.75,-36.32 21.75,-59.86zm143.46 89.79l0 21.55 -51.68 0c-24.74,0 -61.86,-1.21 -78.42,-23.34 -4.39,-6.39 -7.58,-14.17 -10.76,-21.75 -29.53,33.71 -65.86,53.28 -111.35,53.28 -49.68,0 -91.19,-23.95 -91.19,-77.64 0,-33.71 18.56,-61.84 44.7,-81 41.9,-31.15 104.76,-36.93 155.23,-42.12l0 -61.25c0,-40.71 -8.98,-58.67 -54.47,-58.67 -11.37,0 -46.69,5.19 -46.69,22.35 0,12.17 15.36,23.54 15.36,41.5 0,24.94 -19.15,43.3 -43.9,43.3 -18.75,0 -33.92,-9.97 -40.3,-25.54 -1.99,-5.18 -3.19,-10.96 -3.19,-17.16 0,-63.06 86.2,-84.41 136.08,-84.41 24.94,0 53.67,3.79 77.22,14.17 41.51,17.95 51.68,42.3 51.68,85l0 211.71 51.68 0z"></path> <polygon class="fil0" points="1647.19,322.41 1647.19,338.18 1504.51,338.18 1504.51,322.41 1542.63,322.41 1542.63,35.67 1504.51,35.67 1504.51,20.91 1611.47,20.91 1611.47,322.41 "></polygon> <polygon class="fil0" points="1489.75,322.8 1489.75,338.18 1349.87,338.18 1349.87,322.8 1386.79,322.8 1386.79,125.87 1349.87,125.87 1349.87,110.31 1454.83,110.31 1454.83,322.8 "></polygon> <polygon class="fil1" points="1383.59,59.02 1452.03,59.02 1452.03,21.3 1383.59,21.3 "></polygon> <path class="fil0" d="M1401.15 637.07l0 26.34 -42.1 0 0 116.13c-48.29,56.25 -97.37,80.82 -172.4,82l-0.2 -19.73c24.94,0 41.51,-3.21 58.88,-22.35 10.77,-12.57 14.75,-20.94 14.75,-37.51l0 -118.54 -67.83 0 0 -26.34 208.92 0z"></path> <path class="fil0" d="M1339.3 400.42l0 125.72 -26.54 0c-12.17,-69.84 -26.73,-109.96 -107.74,-109.96 -50.49,0 -88.2,20.96 -102.17,70.45 -12.97,42.5 -14.76,90.78 -14.76,135.09 0,42.88 1.79,86.59 8.98,129.28 7.58,52.09 30.53,90.82 89.38,90.82l0.2 19.73c-1.8,0 -3.59,0 -5.38,0 -136.09,0 -204.92,-100.35 -204.92,-227.06 0,-74.23 19.75,-139.47 77.23,-189.75 40.3,-35.52 91.98,-51.49 145.06,-51.49 36.51,0 65.24,10.78 95.57,28.74l29.34 -21.55 15.76 0z"></path> <polygon class="fil0" points="1321.74,322.41 1321.74,338.18 1171.68,338.18 1171.68,322.41 1212.98,322.41 1212.98,37.07 1171.68,37.07 1171.68,21.5 1321.74,21.5 1321.74,37.07 1282.83,37.07 1282.83,322.41 "></polygon> <polygon class="fil0" points="1212.98,163.18 1212.98,182.14 1102.84,182.14 1102.84,322.41 1144.94,322.41 1144.94,338.18 993.9,338.18 993.9,322.41 1032.41,322.41 1032.41,37.07 993.9,37.07 993.9,21.5 1144.94,21.5 1144.94,37.07 1102.84,37.07 1102.84,163.18 "></polygon> <path class="fil2" d="M879.37 0l0 869.34 -71.04 0 0 -47.9c3.39,0 6.39,-0.61 7.38,-1.99 2.8,-2 2,-11.58 0.8,-18.16 -5.99,-33.93 -11.37,-78.62 -11.37,-78.62 -4.59,-90.79 -5.78,-133.08 -59.46,-193.14 0,0 -79.22,-84.61 -166.61,-84.61l-0.4 -19.16c86.79,-0.59 165.41,-83.8 165.41,-83.8 53.88,-59.87 55.28,-102.17 60.27,-192.95 0,0 5.58,-44.71 11.57,-78.62 1.19,-6.39 2.19,-16.16 -0.8,-18.16 -0.99,-1.4 -3.78,-1.79 -7.18,-1.79l0 -50.45 71.44 0z"></path> <path class="fil3" d="M816.51 801.3c1.2,6.58 2,16.16 -0.8,18.16 -0.99,1.38 -3.98,1.99 -7.38,1.99 -3.4,0 -7.38,-0.61 -10.78,-1.19 -33.72,-6.19 -78.61,-11.76 -78.61,-11.76 -90.79,-4.99 -132.89,-6.39 -192.75,-60.27 0,0 -83.41,-78.63 -84,-165.42 -0.21,-9.17 0.79,-18.55 2.79,-27.92 1.39,-2 1.19,-2.4 2.19,-3.6 13.56,-12.36 30.92,-10.37 41.1,3.4 0.6,1 1.2,2.6 1,4.59 -11.18,62.65 43.5,134.88 43.5,134.88 54.47,65.65 162.03,85.6 239.24,81 4.79,-77.21 -14.76,-184.37 -80.41,-239.03 0,0 -101.36,-82.61 -168.21,-31.33 0,0 53.48,47.89 92.59,87.2 36.91,36.93 54.66,60.05 59.85,71.23 1.79,4.38 0.41,6.59 -0.2,7.77 0,0 -4.38,7.58 -10.57,8.99 -1.79,0.6 -3.6,0.19 -4.8,0 -7.78,-2.2 -42.5,-29.54 -72.43,-60.06 -15.55,-15.76 -44.29,-43.89 -68.64,-68.65 -21.15,-21.94 -39.1,-41.49 -41.11,-47.48 -2.58,-7.79 6,-17.36 6,-17.36 30.52,-30.33 63.25,-41.5 94.97,-41.5 87.39,0 166.61,84.61 166.61,84.61 53.68,60.06 54.88,102.35 59.46,193.14 0,0 5.38,44.69 11.37,78.62z"></path> <path class="fil3" d="M815.11 52.24c2.99,2 2,11.77 0.8,18.16 -6,33.91 -11.57,78.62 -11.57,78.62 -4.99,90.78 -6.39,133.08 -60.27,192.95 0,0 -78.62,83.2 -165.41,83.8 -9.38,0 -18.55,-0.79 -27.94,-2.78 -2.19,-1.2 -2.39,-1.01 -3.59,-2 -12.36,-13.57 -10.57,-31.13 3.39,-41.1 0.8,-0.8 2.4,-1.4 4.6,-1.2 62.65,11.37 134.88,-43.5 134.88,-43.5 65.65,-54.28 85.4,-161.83 81.02,-239.05 -77.23,-4.99 -184.38,14.77 -239.26,80.21 0,0 -82.4,101.36 -31.12,168.21 0,0 47.9,-53.27 87,-92.38 37.12,-36.92 60.05,-54.68 71.43,-60.07 4.2,-1.79 6.58,-0.4 7.78,0.4 0,0 7.38,4.19 8.98,10.58 0.59,1.79 0.2,3.59 -0.2,4.79 -1.99,7.79 -29.32,42.31 -59.85,72.43 -29.73,29.14 -103.16,105.36 -116.13,109.55 -7.97,2.59 -17.35,-5.79 -17.35,-5.79 -30.34,-30.53 -41.51,-63.25 -41.51,-94.98 0,-87.6 84.61,-166.82 84.61,-166.82 60.06,-53.47 102.36,-54.87 192.94,-59.46 0,0 44.9,-5.18 78.82,-11.37 3.19,-0.6 7.19,-0.99 10.78,-0.99 3.39,0 6.19,0.39 7.18,1.79z"></path> <path class="fil2" d="M808.33 821.44l0 47.9 -808.33 0 0 -56.66 46.69 0c0,3.39 0.6,6.37 2,7.17 1.8,2.81 11.57,2.01 18.16,0.79 33.72,-5.98 78.61,-11.38 78.61,-11.38 90.79,-4.58 132.9,-5.76 192.96,-59.45 0,0 84.8,-79.22 84.8,-166.61l18.97 -0.41c0.59,86.79 84,165.42 84,165.42 59.86,53.88 101.96,55.28 192.75,60.27 0,0 44.89,5.57 78.61,11.76 3.4,0.59 7.38,1.19 10.78,1.19z"></path> <path class="fil2" d="M807.93 0l0 50.45c-3.59,0 -7.59,0.39 -10.78,0.99 -33.92,6.19 -78.82,11.37 -78.82,11.37 -90.58,4.59 -132.89,6 -192.94,59.46 0,0 -84.61,79.22 -84.61,166.82l-19.16 0.4c-0.4,-87 -83.8,-165.61 -83.8,-165.61 -59.86,-53.88 -102.16,-55.28 -192.95,-60.06 0,0 -44.7,-5.59 -78.62,-11.79 -6.59,-1.19 -16.17,-1.99 -18.16,0.81 -1.4,0.79 -1.79,3.78 -1.79,7.18l-46.3 0 0 -60.02 807.93 0z"></path> <path class="fil2" d="M701.18 724.68c11.17,-0.22 20.14,-9.79 19.96,-21.17 -0.41,-11.16 -9.79,-20.15 -21.15,-19.95 -11.37,0.4 -20.35,9.78 -19.95,21.16 0.19,11.36 9.78,20.35 21.15,19.96zm-9.58 -188.56c65.65,54.66 85.2,161.82 80.41,239.03 -77.21,4.6 -184.77,-15.36 -239.24,-81 0,0 -54.68,-72.24 -43.5,-134.88 0.2,-2 -0.4,-3.59 -1,-4.59l30.93 -3.4c24.35,24.76 53.08,52.89 68.64,68.65 29.93,30.52 64.65,57.86 72.43,60.06 1.19,0.19 3,0.6 4.8,0 6.19,-1.4 10.57,-8.99 10.57,-8.99 0.61,-1.18 2,-3.39 0.2,-7.77 -5.19,-11.19 -22.95,-34.3 -59.85,-71.23 -39.11,-39.3 -92.59,-87.2 -92.59,-87.2 66.85,-51.28 168.21,31.33 168.21,31.33z"></path> <path class="fil2" d="M700.57 187.92c11.38,-0.19 20.35,-9.58 19.96,-20.94 -0.2,-11.38 -9.77,-20.36 -21.14,-19.96 -11.18,0.19 -20.17,9.76 -19.96,20.94 0.4,11.37 9.76,20.35 21.14,19.95zm70.45 -91.78c4.38,77.22 -15.37,184.77 -81.02,239.05 0,0 -72.23,54.87 -134.88,43.5 -2.2,-0.19 -3.8,0.4 -4.6,1.2 -13.96,9.97 -15.75,27.53 -3.39,41.1 1.2,1 1.4,0.8 3.59,2 9.38,1.99 18.56,2.78 27.94,2.78l0.4 19.16c-31.72,0 -64.45,11.17 -94.97,41.5 0,0 -8.58,9.58 -6,17.36 2.01,5.99 19.96,25.54 41.11,47.48l-30.93 3.4c-10.18,-13.77 -27.54,-15.76 -41.1,-3.4 -1.01,1.2 -0.8,1.6 -2.19,3.6 -2,9.38 -3.01,18.76 -2.79,27.92l-18.97 0.41c0,-31.73 -11.18,-64.45 -41.7,-94.97 0,0 -9.38,-8.39 -17.16,-5.79 -4.79,1.6 -18.16,13.37 -34.72,28.74l-19.75 -17.56c1.59,0 2.79,-0.8 3.59,-1.2 13.77,-10.18 15.77,-27.54 3.2,-41.1 -1.19,-1 -1.39,-0.8 -3.59,-2.19 -9.38,-2 -18.76,-2.79 -27.94,-2.79l-0.4 -18.96c31.72,0 64.66,-11.18 95.18,-41.7 0,0 8.38,-9.38 5.79,-17.16 -2,-6 -19.96,-25.55 -41.11,-47.5l30.93 -3.39c10.18,13.76 27.53,15.76 41.09,3.39 1.2,-1.39 1.01,-1.59 2.21,-3.78 1.99,-9.19 2.78,-18.55 2.78,-27.74l19.16 -0.4c0,31.73 11.17,64.45 41.51,94.98 0,0 9.38,8.38 17.35,5.79 12.97,-4.19 86.4,-80.41 116.13,-109.55 30.53,-30.12 57.87,-64.64 59.85,-72.43 0.4,-1.2 0.8,-2.99 0.2,-4.79 -1.6,-6.39 -8.98,-10.58 -8.98,-10.58 -1.2,-0.8 -3.58,-2.19 -7.78,-0.4 -11.38,5.39 -34.31,23.15 -71.43,60.07 -39.11,39.11 -87,92.38 -87,92.38 -51.28,-66.84 31.12,-168.21 31.12,-168.21 54.88,-65.44 162.03,-85.2 239.26,-80.21z"></path> <path class="fil3" d="M721.13 703.51c0.19,11.38 -8.78,20.94 -19.96,21.17 -11.37,0.39 -20.96,-8.6 -21.15,-19.96 -0.4,-11.38 8.58,-20.76 19.95,-21.16 11.36,-0.2 20.75,8.79 21.15,19.95z"></path> <path class="fil3" d="M720.53 166.98c0.4,11.36 -8.57,20.75 -19.96,20.94 -11.37,0.4 -20.74,-8.57 -21.14,-19.95 -0.21,-11.18 8.77,-20.75 19.96,-20.94 11.36,-0.41 20.94,8.57 21.14,19.96z"></path> <path class="fil3" d="M421.62 289.48c0,9.19 -0.79,18.55 -2.78,27.74 -1.2,2.19 -1.01,2.39 -2.21,3.78 -13.56,12.37 -30.92,10.37 -41.09,-3.39 -0.61,-0.99 -1.2,-2.59 -0.8,-4.79 11.17,-62.65 -43.71,-134.89 -43.71,-134.89 -54.28,-65.65 -162.02,-85.39 -239.05,-80.8 -4.99,77.22 14.77,184.36 80.42,239.04 0,0 101.16,82.61 168.01,31.13 0,0 -53.49,-47.69 -92.59,-87 -36.91,-37.12 -54.67,-60.06 -59.86,-71.43 -1.79,-4.2 -0.4,-6.39 0.4,-7.59 0,0 4.2,-7.58 10.59,-9.18 1.79,-0.59 3.57,-0.19 4.58,0.2 7.78,2.19 42.5,29.33 72.43,59.87 15.56,15.96 44.3,44.09 68.64,68.83 21.15,21.95 39.11,41.51 41.11,47.5 2.58,7.77 -5.79,17.16 -5.79,17.16 -30.52,30.52 -63.46,41.7 -95.18,41.7 -87.39,0 -166.61,-84.61 -166.61,-84.61 -53.67,-60.06 -54.88,-102.36 -59.46,-193.15 0,0 -5.39,-44.89 -11.37,-78.62 -0.6,-3.39 -0.99,-7.39 -0.99,-10.97 0,-3.4 0.39,-6.39 1.79,-7.18 2,-2.79 11.57,-2 18.16,-0.81 33.91,6.19 78.62,11.79 78.62,11.79 90.79,4.78 133.09,6.18 192.95,60.06 0,0 83.4,78.62 83.8,165.61z"></path> <path class="fil3" d="M381.52 488.23c30.53,30.52 41.7,63.25 41.7,94.97 0,87.39 -84.8,166.61 -84.8,166.61 -60.06,53.69 -102.16,54.87 -192.96,59.45 0,0 -44.89,5.4 -78.61,11.38 -6.59,1.22 -16.36,2.01 -18.16,-0.79 -1.4,-0.8 -2,-3.78 -2,-7.17 0,-3.6 0.6,-7.6 1.2,-10.99 6.18,-33.71 11.58,-78.41 11.58,-78.41 4.99,-90.97 6.39,-133.08 60.26,-192.95 0,0 78.42,-83.2 165.42,-84 9.18,0 18.56,0.8 27.94,2.79 2.21,1.39 2.4,1.19 3.59,2.19 12.57,13.56 10.57,30.92 -3.2,41.1 -0.8,0.4 -2,1.2 -3.59,1.2 -0.4,0 -0.8,-0.2 -1.2,-0.2 -62.65,-11.18 -134.89,43.5 -134.89,43.5 -65.65,54.47 -85.4,162.02 -80.8,239.25 77.01,4.99 184.36,-14.77 239.04,-80.41 0,0 82.61,-101.36 31.13,-168.22 0,0 -47.69,53.49 -87,92.59 -37.1,36.9 -60.05,54.67 -71.43,59.86 -4.19,1.79 -6.39,0.39 -7.79,-0.2 0,0 -7.38,-4.4 -8.98,-10.58 -0.59,-1.79 0,-3.59 0.2,-4.79 2,-7.78 29.32,-42.5 59.86,-72.43 18.76,-18.35 54.47,-54.88 81.61,-80.8 16.56,-15.37 29.93,-27.14 34.72,-28.74 7.77,-2.6 17.16,5.79 17.16,5.79z"></path> <path class="fil2" d="M163.82 188.53c11.38,-0.21 20.36,-9.79 19.96,-21.15 -0.2,-11.18 -9.58,-20.16 -20.94,-19.96 -11.38,0.4 -20.35,9.77 -19.96,21.15 0.19,11.36 9.77,20.35 20.94,19.96zm167.21 -10.59c0,0 54.87,72.24 43.71,134.89 -0.4,2.19 0.19,3.8 0.8,4.79l-30.93 3.39c-24.33,-24.74 -53.08,-52.87 -68.64,-68.83 -29.93,-30.54 -64.66,-57.67 -72.43,-59.87 -1.01,-0.4 -2.79,-0.8 -4.58,-0.2 -6.39,1.6 -10.59,9.18 -10.59,9.18 -0.79,1.2 -2.19,3.39 -0.4,7.59 5.19,11.37 22.95,34.31 59.86,71.43 39.11,39.31 92.59,87 92.59,87 -66.85,51.48 -168.01,-31.13 -168.01,-31.13 -65.65,-54.68 -85.41,-161.82 -80.42,-239.04 77.03,-4.59 184.77,15.16 239.05,80.8z"></path> <path class="fil2" d="M164.43 725.26c11.37,-0.39 20.15,-9.77 19.96,-21.14 -0.4,-11.38 -9.78,-20.16 -21.15,-19.96 -11.38,0.38 -20.16,9.77 -19.96,21.14 0.4,11.37 9.77,20.16 21.15,19.95zm198.74 -197.73c51.48,66.85 -31.13,168.22 -31.13,168.22 -54.68,65.64 -162.03,85.4 -239.04,80.41 -4.59,-77.23 15.16,-184.77 80.8,-239.25 0,0 72.24,-54.68 134.89,-43.5 0.4,0 0.8,0.2 1.2,0.2l19.75 17.56c-27.13,25.93 -62.85,62.45 -81.61,80.8 -30.54,29.93 -57.86,64.65 -59.86,72.43 -0.2,1.2 -0.8,3 -0.2,4.79 1.6,6.18 8.98,10.58 8.98,10.58 1.4,0.59 3.6,1.99 7.79,0.2 11.37,-5.19 34.32,-22.96 71.43,-59.86 39.32,-39.1 87,-92.59 87,-92.59z"></path> <path class="fil2" d="M284.74 427.37l0.4 18.96c-86.99,0.8 -165.42,84 -165.42,84 -53.86,59.87 -55.27,101.98 -60.26,192.95 0,0 -5.4,44.7 -11.58,78.41 -0.6,3.39 -1.2,7.39 -1.2,10.99l-46.69 0 0 -752.66 46.3 0c0,3.59 0.39,7.58 0.99,10.97 5.98,33.72 11.37,78.62 11.37,78.62 4.59,90.79 5.79,133.09 59.46,193.15 0,0 79.22,84.61 166.61,84.61z"></path> <path class="fil3" d="M184.38 704.12c0.19,11.37 -8.58,20.75 -19.96,21.14 -11.38,0.21 -20.76,-8.57 -21.15,-19.95 -0.2,-11.37 8.57,-20.76 19.96,-21.14 11.37,-0.2 20.76,8.57 21.15,19.96z"></path> <path class="fil3" d="M183.78 167.37c0.4,11.37 -8.57,20.94 -19.96,21.15 -11.17,0.4 -20.75,-8.59 -20.94,-19.96 -0.4,-11.38 8.57,-20.76 19.96,-21.15 11.37,-0.2 20.75,8.77 20.94,19.96z"></path> <polygon class="fil0" points="1206.47,1206.08 1236.64,1206.08 1236.64,1213.7 1137.29,1213.7 1137.29,1206.08 1167.46,1206.08 1167.46,1022.92 1166.54,1022.92 1105.58,1213.7 1095.23,1213.7 1034.58,1022.92 1033.96,1022.92 1033.96,1206.08 1063.54,1206.08 1063.54,1213.7 994.05,1213.7 994.05,1206.08 1024.22,1206.08 1024.22,1017.73 994.05,1017.73 994.05,1010.11 1072.68,1010.11 1115.34,1149.4 1159.53,1010.11 1236.64,1010.11 1236.64,1017.73 1206.47,1017.73 "></polygon> <path class="fil0" d="M1318.56 1097.27c-29.87,0 -27.73,23.77 -27.73,58.23 0,39.61 0.61,56.68 27.73,56.68 27.12,0 27.72,-17.07 27.72,-56.68 0,-34.46 2.16,-58.23 -27.72,-58.23zm0 -6.1c34.45,0 64.02,30.19 64.02,64.33 0,34.12 -29.56,62.78 -64.02,62.78 -34.43,0 -63.99,-28.67 -63.99,-62.78 0,-34.14 29.56,-64.33 63.99,-64.33z"></path> <path class="fil0" d="M1415.13 1213.7l-4.88 0 0 -43.59 8.22 0c3.04,21.65 15.55,42.07 38.7,42.07 13.43,0 27.75,-9.14 27.75,-24.38 0,-15.23 -14.03,-16.78 -29.87,-18.9 -31.4,-4.27 -43.28,-17.07 -43.28,-40.54 0,-23.16 15.85,-37.2 38.41,-37.2 10.66,0 21.31,3.37 29.85,9.76l4.89 -7.92 5.18 0 0 35.97 -7.92 0c-1.83,-16.47 -14.95,-31.71 -32,-31.71 -11.89,0 -24.69,7.02 -24.69,21.03 0,9.16 1.52,12.51 28.96,17.07 27.73,4.58 43.57,9.45 43.57,40.84 0,29.27 -16.15,42.07 -43.57,42.07 -10.07,0 -23.17,-5.8 -30.49,-12.81l-8.83 8.22z"></path> <path class="fil0" d="M1560.77 1173.46c0,28.96 6.7,38.72 26.82,38.72 21.94,0 36.58,-15.24 42.07,-36.58l7 0c-4.28,26.53 -24.98,42.68 -50.9,42.68 -37.18,0 -62.16,-29.58 -60.64,-66.14 0.61,-14.94 8.85,-35.36 20.42,-45.42 12.49,-10.97 26.21,-15.55 42.97,-15.55 18.3,0 45.42,8.24 45.42,31.1 0,8.22 -6.4,17.68 -15.24,17.68 -9.45,0 -18.9,-3.96 -18.9,-15.55 0,-9.15 9.46,-10.98 9.46,-16.45 0,-8.54 -16.47,-10.68 -21.34,-10.68 -29.56,0 -27.13,30.19 -27.13,51.82l0 24.38z"></path> <path class="fil0" d="M1724.68 1097.27c-29.88,0 -27.72,23.77 -27.72,58.23 0,39.61 0.6,56.68 27.72,56.68 27.13,0 27.73,-17.07 27.73,-56.68 0,-34.46 2.15,-58.23 -27.73,-58.23zm0 -6.1c34.45,0 64.02,30.19 64.02,64.33 0,34.12 -29.56,62.78 -64.02,62.78 -34.42,0 -63.99,-28.67 -63.99,-62.78 0,-34.14 29.56,-64.33 63.99,-64.33z"></path> <polygon class="fil0" points="1802.36,1093 1871.23,1093 1871.23,1100.63 1850.82,1100.63 1877.03,1175.3 1907.5,1093 1916.04,1093 1948.34,1172.86 1973.35,1100.63 1952.61,1100.63 1952.61,1093 2001.08,1093 2001.08,1100.63 1982.78,1100.63 1943.47,1218.28 1933.71,1218.28 1899.89,1139.03 1869.4,1218.28 1859.96,1218.28 1817.31,1100.63 1802.36,1100.63 "></polygon> <polygon class="fil0" points="2263.99,1217.65 2254.85,1217.65 2125.63,1023.83 2125.63,1206.08 2155.5,1206.08 2155.5,1213.7 2086,1213.7 2086,1206.08 2115.88,1206.08 2115.88,1017.73 2086,1017.73 2086,1010.11 2164.04,1010.11 2254.26,1143.3 2254.26,1017.73 2224.98,1017.73 2224.98,1010.11 2294.48,1010.11 2294.48,1017.73 2263.99,1017.73 "></polygon> <path class="fil0" d="M2390.7 1138.72c0,-20.42 5.19,-41.45 -21.93,-41.45 -25.28,0 -22.55,22.26 -22.55,41.45l44.48 0zm-44.48 7.62l0 24.4c0,21.34 1.22,41.44 27.14,41.44 21.95,0 38.71,-15.86 44.77,-36.58l7.64 0c-7.94,29.56 -28.95,42.68 -58.52,42.68 -33.22,0 -57.3,-32.02 -57.3,-63.09 0,-33.52 27.43,-64.02 60.66,-64.02 28.35,0 54.55,19.51 54.55,49.69 0,6.39 -2.73,5.48 -7.6,5.48l-71.34 0z"></path> <polygon class="fil0" points="2437.01,1093 2505.87,1093 2505.87,1100.63 2485.44,1100.63 2511.68,1175.3 2542.14,1093 2550.69,1093 2582.99,1172.86 2607.98,1100.63 2587.24,1100.63 2587.24,1093 2635.73,1093 2635.73,1100.63 2617.41,1100.63 2578.12,1218.28 2568.34,1218.28 2534.5,1139.03 2504.03,1218.28 2494.6,1218.28 2451.93,1100.63 2437.01,1100.63 "></polygon> <path class="fil0" d="M2797.78 1101.24l24.98 0c27.43,0 38.69,-13.11 38.69,-40.55 0,-34.12 -10.06,-42.96 -37.17,-42.96l-26.5 0 0 83.51zm0 104.83l30.17 0 0 7.62 -99.35 0 0 -7.62 30.17 0 0 -188.35 -30.17 0 0 -7.62 102.07 0c33.24,0 72.89,3.95 72.89,46.31 0,34.45 -36.3,46.34 -64.63,49.38l0 0.6c47.55,7.33 58.19,32.93 58.19,82.61 0,10.67 0.94,22.85 30.21,17.38l0 7.3c-8.54,2.12 -17.06,3.67 -25.92,3.67 -30.79,0 -46.95,-15.55 -46.95,-46.63 0,-25.32 -4.25,-44.2 -12.17,-50.89 -8.52,-7.33 -18.32,-10.98 -27.74,-10.98l-16.76 0 0 97.21z"></path> <path class="fil0" d="M2974.79 1053.99c-9.48,0 -16.48,-9.46 -16.48,-18.28 0,-8.23 8.26,-16.47 16.48,-16.47 8.84,0 17.96,7.32 17.96,16.47 0,10.36 -7.6,18.28 -17.96,18.28zm-36.28 159.71l0 -7.62 22.25 0 0 -105.45 -22.25 0 0 -7.62c17.96,0.62 36.6,-0.6 55.18,-1.21l0 114.28 22.52 0 0 7.62 -77.7 0z"></path> <path class="fil0" d="M3067.11 1152.14c0,10.97 4.55,15.25 16.12,15.25 13.11,0 17.4,-2.75 17.4,-15.25l0 -42.35c0,-10.08 -5.8,-12.52 -16.18,-12.52 -12.79,0 -17.34,6.1 -17.34,12.52l0 42.35zm-4.61 72.54c-10.63,0 -12.16,14.63 -12.16,22.86 0,19.19 13.41,29.88 31.69,29.88 24.66,0 47.55,-7.31 55.45,-33.83 5.19,-17.38 -7.28,-18.9 -23.15,-18.9l-51.84 0zm47.29 -28.65c14.29,0 24.96,-2.14 33.5,9.74 4.57,6.41 5.76,14.33 5.76,21.94 0,39.32 -32.88,57.31 -68.24,57.31 -20.73,0 -49.98,-9.77 -49.98,-35.05 0,-11.89 9.14,-21.63 19.51,-25.61 -12.19,-4.56 -19.83,-14.02 -19.83,-27.73 0,-18.28 11.3,-26.52 27.44,-31.08 -11.58,-7.34 -20.44,-17.39 -20.44,-31.71 0,-26.81 21.37,-42.68 46.35,-42.68 14.03,0 24.34,4.58 34.72,13.72 6.13,-7.31 11.62,-14.93 22.25,-14.93 7.32,0 13.41,4.87 13.41,12.49 0,7.32 -3.68,10.96 -10.96,10.96 -7.32,0 -10.06,-10.36 -12.51,-10.36 -3.35,0 -6.07,4.26 -8.22,6.41 5.19,6.09 7.32,14 7.32,22.54 0,13.72 -7.32,28.35 -19.51,35.37 -12.47,6.99 -28.02,4.86 -40.84,4.86 -8.84,0 -29.24,0.61 -29.24,13.72 0,7.62 5.47,10.06 12.16,10.06l57.35 0z"></path> <path class="fil0" d="M3246.25 1152.75c-18.9,0 -44.17,2.44 -44.17,27.12 0,13.41 5.48,23.46 19.79,23.46 10.68,0 18.58,-8.22 22.25,-17.98 1.83,-4.56 2.13,-10.06 2.13,-15.85l0 -16.75zm0 -44.51c0,-7.91 -14.93,-10.97 -20.09,-10.97 -11.6,0 -25.92,5.79 -21.37,11.6 1.83,2.43 4.29,8.83 4.29,14.62 0,7.94 -7.64,13.43 -14.64,13.43 -8.54,0 -15.83,-4.59 -15.83,-14.35 0,-23.15 29.85,-31.39 48.42,-31.39 13.11,0 27.14,2.14 39.03,8.24 8.52,4.27 11.3,9.14 11.3,18.6l0 81.06c0,3.97 3.63,5.79 7.29,5.79 3.67,0 8.22,-4.56 10.67,-7l3.67 4.28c-7.94,9.74 -16.18,16.15 -28.95,16.15 -13.41,0 -21.95,-8.25 -23.78,-21.65 -10.97,13.41 -27.44,21.65 -44.49,21.65 -18.28,0 -31.69,-10.08 -31.69,-29.58 0,-36.27 48.74,-43.89 76.18,-42.37l0 -38.09z"></path> <path class="fil1" d="M4577.82 585.74l-2.35 -35.4c-0.28,-4.58 0,-10.17 -0.14,-15.92l-0.46 0c-1.45,5.45 -3.23,11.65 -5.01,16.82l-12.23 33.76 -6.8 0 -11.93 -34.66c-1.48,-4.72 -2.95,-10.47 -4.27,-15.92l-0.46 0c-0.14,5.59 0,10.62 -0.26,15.92l-2.23 35.4 -8.56 0 4.57 -58.71 11.65 0 11.49 31.86c1.48,4.43 2.68,9.3 4.13,14.75l0.32 0c1.3,-5.45 2.65,-10.62 4.13,-14.89l11.49 -31.71 11.49 0 4.43 58.71 -9 0zm-56.77 -58.71l0 7.53 -17.98 0 0 51.17 -8.88 0 0 -51.17 -17.81 0 0 -7.53 44.67 0z"></path> </g> </g> </svg> 