<?xml version="1.0" encoding="UTF-8"?> <svg xmlns="http://www.w3.org/2000/svg" width="300" height="121" viewBox="0 0 300 121" fill="none"> <rect width="300" height="121" fill="white"></rect> <path fill-rule="evenodd" clip-rule="evenodd" d="M150.193 68.1735V64.5726H155.658V49.9763H150.193V46.3754H165.752V49.9763H160.287V64.6369H165.752V68.2378H150.193V68.1735Z" fill="url(#paint0_linear)"></path> <path fill-rule="evenodd" clip-rule="evenodd" d="M232.619 68.4949C229.597 68.4949 227.347 67.8519 225.804 66.5016C224.261 65.1513 223.489 63.2865 223.489 60.8431V53.8343C223.489 51.3909 224.261 49.4618 225.804 48.1115C227.347 46.7612 229.661 46.1182 232.619 46.1182C235.577 46.1182 237.891 46.7612 239.434 48.1115C240.977 49.4618 241.749 51.3909 241.749 53.8343V60.8431C241.749 63.2865 240.977 65.1513 239.434 66.5016C237.891 67.7876 235.577 68.4949 232.619 68.4949V68.4949ZM232.619 64.8941C234.226 64.8941 235.448 64.5726 236.091 63.8653C236.798 63.2222 237.12 62.0648 237.12 60.4573V54.2201C237.12 52.5483 236.798 51.3909 236.091 50.6836C235.384 49.9762 234.226 49.6547 232.619 49.6547C231.012 49.6547 229.79 49.9762 229.147 50.6836C228.44 51.3909 228.118 52.5483 228.118 54.2201V60.4573C228.118 62.0648 228.44 63.2222 229.147 63.8653C229.79 64.5083 230.947 64.8941 232.619 64.8941V64.8941Z" fill="url(#paint1_linear)"></path> <path fill-rule="evenodd" clip-rule="evenodd" d="M11.4445 68.1735V64.5726H14.7235V49.9763H11.4445V46.3754H23.4034V49.9763H19.3528V64.6369H26.5538V59.4929H30.9902V68.2378H11.4445V68.1735Z" fill="url(#paint2_linear)"></path> <path fill-rule="evenodd" clip-rule="evenodd" d="M35.3622 78.4614H7.07244C3.15045 78.4614 0 75.3107 0 71.3883V43.0959C0 39.1735 3.15045 36.0228 7.07244 36.0228H35.3622C39.2842 36.0228 42.4346 39.1735 42.4346 43.0959V71.3883C42.4346 75.3107 39.2842 78.4614 35.3622 78.4614V78.4614ZM7.07244 39.8808C5.27218 39.8808 3.85769 41.2954 3.85769 43.0959V71.3883C3.85769 73.1887 5.27218 74.6034 7.07244 74.6034H35.3622C37.1625 74.6034 38.5769 73.1887 38.5769 71.3883V43.0959C38.5769 41.2954 37.1625 39.8808 35.3622 39.8808H7.07244V39.8808Z" fill="url(#paint3_linear)"></path> <path fill-rule="evenodd" clip-rule="evenodd" d="M105.186 68.1735V64.5726H109.044V49.9763H104.929V54.1559H100.3V46.3754H122.417V54.1559H117.788V49.9763H113.673V64.6369H117.531V68.2378H105.186V68.1735Z" fill="url(#paint4_linear)"></path> <path fill-rule="evenodd" clip-rule="evenodd" d="M125.504 78.4614H97.2139C93.2919 78.4614 90.1414 75.3107 90.1414 71.3883V43.0959C90.1414 39.1735 93.2919 36.0228 97.2139 36.0228H125.504C129.426 36.0228 132.576 39.1735 132.576 43.0959V71.3883C132.576 75.3107 129.426 78.4614 125.504 78.4614V78.4614ZM97.2139 39.8808C95.4136 39.8808 93.9991 41.2954 93.9991 43.0959V71.3883C93.9991 73.1887 95.4136 74.6034 97.2139 74.6034H125.504C127.304 74.6034 128.718 73.1887 128.718 71.3883V43.0959C128.718 41.2954 127.304 39.8808 125.504 39.8808H97.2139V39.8808Z" fill="url(#paint5_linear)"></path> <path fill-rule="evenodd" clip-rule="evenodd" d="M278.011 68.1735H267.338V64.5726H270.617V49.9763H267.338V46.3754H281.29C283.605 46.3754 285.341 46.8899 286.498 47.9187C287.655 48.9475 288.298 50.4264 288.298 52.4197V53.8987C288.298 55.4419 287.913 56.7279 287.205 57.6924C286.498 58.6569 285.405 59.3 283.991 59.6858L286.627 64.6369H290.099V68.2378H283.669L279.168 60.0073H275.311V64.6369H278.011V68.1735V68.1735ZM275.311 56.342H280.39C281.612 56.342 282.512 56.1491 282.962 55.7633C283.476 55.3775 283.669 54.7345 283.669 53.8343V52.5483C283.669 51.5838 283.412 50.9408 282.962 50.555C282.447 50.1691 281.612 49.9762 280.39 49.9762H275.311V56.342V56.342Z" fill="url(#paint6_linear)"></path> <path fill-rule="evenodd" clip-rule="evenodd" d="M292.928 78.4614H264.638C260.716 78.4614 257.565 75.3107 257.565 71.3883V43.0959C257.565 39.1735 260.716 36.0228 264.638 36.0228H292.928C296.85 36.0228 300 39.1735 300 43.0959V71.3883C300 75.3107 296.85 78.4614 292.928 78.4614V78.4614ZM264.638 39.8808C262.838 39.8808 261.423 41.2954 261.423 43.0959V71.3883C261.423 73.1887 262.838 74.6034 264.638 74.6034H292.928C294.728 74.6034 296.142 73.1887 296.142 71.3883V43.0959C296.142 41.2954 294.728 39.8808 292.928 39.8808H264.638V39.8808Z" fill="url(#paint7_linear)"></path> <path fill-rule="evenodd" clip-rule="evenodd" d="M171.86 78.4614H143.571C139.649 78.4614 136.498 75.3107 136.498 71.3883V43.0959C136.498 39.1735 139.649 36.0228 143.571 36.0228H171.86C175.782 36.0228 178.933 39.1735 178.933 43.0959V71.3883C178.933 75.3107 175.782 78.4614 171.86 78.4614V78.4614ZM143.571 39.8808C141.77 39.8808 140.356 41.2954 140.356 43.0959V71.3883C140.356 73.1887 141.77 74.6034 143.571 74.6034H171.86C173.661 74.6034 175.075 73.1887 175.075 71.3883V43.0959C175.075 41.2954 173.661 39.8808 171.86 39.8808H143.571V39.8808Z" fill="url(#paint8_linear)"></path> <path fill-rule="evenodd" clip-rule="evenodd" d="M246.571 78.4614H218.281C214.359 78.4614 211.209 75.3107 211.209 71.3883V43.0959C211.209 39.1735 214.359 36.0228 218.281 36.0228H246.571C250.493 36.0228 253.643 39.1735 253.643 43.0959V71.3883C253.643 75.3107 250.493 78.4614 246.571 78.4614V78.4614ZM218.281 39.8808C216.481 39.8808 215.066 41.2954 215.066 43.0959V71.3883C215.066 73.1887 216.481 74.6034 218.281 74.6034H246.571C248.371 74.6034 249.786 73.1887 249.786 71.3883V43.0959C249.786 41.2954 248.371 39.8808 246.571 39.8808H218.281V39.8808Z" fill="url(#paint9_linear)"></path> <path fill-rule="evenodd" clip-rule="evenodd" d="M189.413 41.2954L187.613 38.209L190.442 36.5372L182.983 23.9342L180.154 25.606L178.354 22.5195L188.706 16.4109C191.277 14.8677 193.656 14.3533 195.842 14.7391C198.028 15.1249 199.7 16.3466 200.922 18.4043L204.008 23.6126C205.229 25.6703 205.487 27.7279 204.715 29.7855C204.008 31.8432 202.336 33.6436 199.764 35.1868L189.413 41.2954V41.2954ZM194.428 34.158L197.643 32.2933C199.314 31.3288 200.279 30.3 200.6 29.2712C200.922 28.2423 200.664 27.0206 199.829 25.606L197.128 21.0406C196.292 19.626 195.328 18.7901 194.235 18.5972C193.142 18.34 191.792 18.7258 190.12 19.6903L186.905 21.555L194.428 34.158V34.158Z" fill="url(#paint10_linear)"></path> <path fill-rule="evenodd" clip-rule="evenodd" d="M188.191 52.8697C185.748 52.8697 183.433 51.648 182.083 49.3975L167.681 25.0274C166.717 23.4199 166.46 21.4908 166.91 19.6904C167.36 17.89 168.517 16.3467 170.189 15.3822L194.556 0.978804C197.9 -1.01453 202.272 0.142891 204.265 3.48654L218.667 27.8566C219.631 29.4642 219.889 31.3932 219.438 33.1936C218.988 34.994 217.831 36.5373 216.159 37.5018L191.727 51.8409C190.634 52.5482 189.413 52.8697 188.191 52.8697V52.8697ZM198.157 3.808C197.578 3.808 197.064 3.9366 196.55 4.25811L172.182 18.6615C171.475 19.1116 170.896 19.819 170.703 20.6549C170.51 21.4908 170.639 22.3267 171.024 23.0983L185.426 47.4684C186.327 49.0116 188.32 49.526 189.799 48.6258L214.166 34.2224C214.874 33.7723 215.452 33.065 215.645 32.2291C215.838 31.3931 215.709 30.5572 215.324 29.7856L200.922 5.41553C200.343 4.38671 199.25 3.808 198.157 3.808V3.808Z" fill="url(#paint11_linear)"></path> <path fill-rule="evenodd" clip-rule="evenodd" d="M59.7943 65.7299L58.7012 62.3219L61.7874 61.2931L57.2225 47.4041L54.1363 48.4329L53.0433 45.025L72.8461 38.5305L75.1607 45.5394L70.9173 46.954L69.76 43.3531L61.6588 45.9895L63.2662 50.8763L69.5671 48.8187L70.6601 52.2267L64.3592 54.2843L66.2237 59.8785L74.3249 57.2421L73.1676 53.6413L77.4111 52.2267L79.7257 59.2355L59.7943 65.7299V65.7299Z" fill="url(#paint12_linear)"></path> <path fill-rule="evenodd" clip-rule="evenodd" d="M57.2868 77.0469C54.3292 77.0469 51.5645 75.1822 50.5358 72.1601L41.7274 45.2822C41.1487 43.4818 41.2773 41.5528 42.1132 39.8809C42.949 38.2091 44.4278 36.9231 46.228 36.3444L73.1033 27.5351C76.8324 26.3134 80.8187 28.3711 82.0403 32.0362L90.8487 58.914C91.4273 60.7145 91.2988 62.6435 90.4629 64.3153C89.6271 65.9872 88.1483 67.2732 86.3481 67.8519L59.4728 76.6611C58.7655 76.9183 57.994 77.0469 57.2868 77.0469V77.0469ZM75.3536 31.0717C75.0322 31.0717 74.7107 31.136 74.3249 31.2003L47.4496 40.0095C45.778 40.5882 44.8136 42.3887 45.3922 44.0605L54.2006 70.9383C54.7793 72.6101 56.5795 73.5747 58.2512 72.9959L85.1264 64.1867C85.9623 63.9295 86.6052 63.3508 86.991 62.5792C87.3768 61.8076 87.4411 60.9717 87.1839 60.1357L78.4398 33.2579C77.9897 31.9076 76.7038 31.0717 75.3536 31.0717V31.0717Z" fill="url(#paint13_linear)"></path> <path d="M219.202 93.978V108H217.34V93.978H219.202ZM228.621 102.1C228.621 101.733 228.567 101.394 228.459 101.084C228.358 100.774 228.206 100.504 228.003 100.276C227.801 100.048 227.554 99.8712 227.262 99.7445C226.971 99.6178 226.635 99.5545 226.255 99.5545C225.476 99.5545 224.862 99.7793 224.412 100.229C223.969 100.679 223.687 101.302 223.567 102.1H228.621ZM230.15 106.622C229.922 106.888 229.66 107.12 229.362 107.316C229.064 107.506 228.748 107.661 228.412 107.781C228.076 107.902 227.728 107.99 227.367 108.048C227.012 108.105 226.661 108.133 226.312 108.133C225.647 108.133 225.03 108.022 224.46 107.8C223.896 107.572 223.405 107.243 222.987 106.812C222.576 106.375 222.253 105.837 222.018 105.197C221.79 104.551 221.676 103.81 221.676 102.974C221.676 102.303 221.781 101.679 221.99 101.103C222.199 100.52 222.497 100.014 222.883 99.583C223.276 99.1523 223.754 98.8135 224.317 98.5665C224.881 98.3195 225.514 98.196 226.217 98.196C226.806 98.196 227.348 98.2942 227.842 98.4905C228.342 98.6805 228.773 98.9592 229.134 99.3265C229.495 99.6938 229.777 100.147 229.979 100.685C230.188 101.223 230.293 101.838 230.293 102.528C230.293 102.813 230.261 103.006 230.198 103.107C230.135 103.202 230.017 103.25 229.846 103.25H223.519C223.538 103.826 223.621 104.33 223.766 104.76C223.912 105.185 224.112 105.539 224.365 105.824C224.625 106.109 224.932 106.322 225.286 106.461C225.641 106.6 226.037 106.67 226.474 106.67C226.886 106.67 227.24 106.622 227.538 106.527C227.842 106.432 228.102 106.331 228.317 106.223C228.539 106.109 228.722 106.005 228.868 105.91C229.02 105.815 229.153 105.767 229.267 105.767C229.419 105.767 229.536 105.824 229.618 105.938L230.15 106.622ZM241.738 108H239.876V99.849H235.031V105.501C235.031 105.881 235.123 106.166 235.307 106.356C235.497 106.54 235.737 106.632 236.029 106.632C236.2 106.632 236.345 106.61 236.466 106.565C236.592 106.521 236.7 106.474 236.789 106.423C236.877 106.366 236.953 106.315 237.017 106.271C237.08 106.227 237.137 106.204 237.188 106.204C237.251 106.204 237.299 106.22 237.33 106.252C237.368 106.277 237.406 106.322 237.444 106.385L237.995 107.278C237.691 107.557 237.33 107.772 236.912 107.924C236.494 108.076 236.06 108.152 235.611 108.152C234.832 108.152 234.23 107.933 233.806 107.496C233.388 107.059 233.179 106.436 233.179 105.625V99.849H232.058C231.95 99.849 231.858 99.8173 231.782 99.754C231.713 99.6843 231.678 99.583 231.678 99.45V98.6995L233.255 98.481L233.663 95.6025C233.689 95.4948 233.736 95.4125 233.806 95.3555C233.882 95.2922 233.977 95.2605 234.091 95.2605H235.031V98.5H241.738V108ZM242.156 95.308C242.156 95.479 242.121 95.6437 242.052 95.802C241.982 95.954 241.887 96.0902 241.767 96.2105C241.653 96.3245 241.517 96.4163 241.358 96.486C241.2 96.5493 241.035 96.581 240.864 96.581C240.693 96.581 240.532 96.5493 240.38 96.486C240.228 96.4163 240.092 96.3245 239.971 96.2105C239.857 96.0902 239.765 95.954 239.696 95.802C239.632 95.6437 239.601 95.479 239.601 95.308C239.601 95.1307 239.632 94.9628 239.696 94.8045C239.765 94.6462 239.857 94.51 239.971 94.396C240.092 94.2757 240.228 94.1838 240.38 94.1205C240.532 94.0508 240.693 94.016 240.864 94.016C241.035 94.016 241.2 94.0508 241.358 94.1205C241.517 94.1838 241.653 94.2757 241.767 94.396C241.887 94.51 241.982 94.6462 242.052 94.8045C242.121 94.9628 242.156 95.1307 242.156 95.308ZM251.03 100.685C250.726 100.286 250.397 100.007 250.042 99.849C249.694 99.6907 249.301 99.6115 248.864 99.6115C248.016 99.6115 247.357 99.9187 246.888 100.533C246.426 101.141 246.195 102.031 246.195 103.203C246.195 103.817 246.245 104.342 246.347 104.779C246.454 105.21 246.606 105.565 246.803 105.843C247.005 106.116 247.252 106.318 247.544 106.451C247.835 106.578 248.164 106.641 248.532 106.641C249.07 106.641 249.536 106.521 249.928 106.28C250.321 106.04 250.688 105.701 251.03 105.264V100.685ZM252.892 93.978V108H251.771C251.512 108 251.35 107.876 251.287 107.629L251.125 106.518C250.714 107.006 250.245 107.398 249.719 107.696C249.2 107.987 248.598 108.133 247.914 108.133C247.363 108.133 246.863 108.025 246.413 107.81C245.97 107.595 245.59 107.281 245.273 106.869C244.957 106.451 244.713 105.935 244.542 105.321C244.371 104.707 244.285 104 244.285 103.203C244.285 102.487 244.38 101.822 244.57 101.207C244.76 100.593 245.036 100.061 245.397 99.6115C245.758 99.1618 246.195 98.8103 246.708 98.557C247.221 98.2973 247.8 98.1675 248.446 98.1675C249.029 98.1675 249.523 98.2625 249.928 98.4525C250.34 98.6425 250.707 98.9117 251.03 99.26V93.978H252.892ZM259.97 98.196C260.679 98.196 261.319 98.3132 261.889 98.5475C262.465 98.7755 262.953 99.108 263.352 99.545C263.757 99.9757 264.068 100.498 264.283 101.112C264.498 101.72 264.606 102.404 264.606 103.164C264.606 103.924 264.498 104.612 264.283 105.226C264.068 105.84 263.757 106.363 263.352 106.793C262.953 107.224 262.465 107.557 261.889 107.791C261.319 108.019 260.679 108.133 259.97 108.133C259.254 108.133 258.608 108.019 258.032 107.791C257.462 107.557 256.974 107.224 256.569 106.793C256.164 106.363 255.85 105.84 255.629 105.226C255.413 104.612 255.306 103.924 255.306 103.164C255.306 102.404 255.413 101.72 255.629 101.112C255.85 100.498 256.164 99.9757 256.569 99.545C256.974 99.108 257.462 98.7755 258.032 98.5475C258.608 98.3132 259.254 98.196 259.97 98.196ZM259.97 106.689C260.882 106.689 261.563 106.382 262.013 105.767C262.462 105.153 262.687 104.289 262.687 103.174C262.687 102.059 262.462 101.195 262.013 100.58C261.563 99.9598 260.882 99.6495 259.97 99.6495C259.045 99.6495 258.355 99.9598 257.899 100.58C257.449 101.195 257.225 102.059 257.225 103.174C257.225 104.289 257.449 105.153 257.899 105.767C258.355 106.382 259.045 106.689 259.97 106.689ZM268.802 100.2C269.112 99.5672 269.486 99.07 269.923 98.709C270.36 98.348 270.886 98.1675 271.5 98.1675C271.709 98.1675 271.905 98.1928 272.089 98.2435C272.279 98.2878 272.444 98.3575 272.583 98.4525L272.46 99.849C272.415 100.02 272.311 100.105 272.146 100.105C272.057 100.105 271.924 100.09 271.747 100.058C271.57 100.02 271.38 100.001 271.177 100.001C270.879 100.001 270.617 100.045 270.389 100.134C270.161 100.216 269.955 100.343 269.771 100.514C269.594 100.679 269.435 100.884 269.296 101.131C269.157 101.372 269.027 101.648 268.907 101.958V108H267.054V98.348H268.118C268.321 98.348 268.457 98.386 268.527 98.462C268.603 98.5317 268.656 98.6583 268.688 98.842L268.802 100.2ZM273.346 106.888C273.346 106.717 273.378 106.556 273.441 106.404C273.504 106.252 273.59 106.119 273.697 106.005C273.811 105.891 273.944 105.802 274.096 105.739C274.248 105.669 274.413 105.634 274.59 105.634C274.761 105.634 274.923 105.669 275.075 105.739C275.227 105.802 275.36 105.891 275.474 106.005C275.588 106.119 275.677 106.252 275.74 106.404C275.81 106.556 275.844 106.717 275.844 106.888C275.844 107.066 275.81 107.23 275.74 107.382C275.677 107.534 275.588 107.667 275.474 107.781C275.36 107.895 275.227 107.984 275.075 108.048C274.923 108.111 274.761 108.143 274.59 108.143C274.413 108.143 274.248 108.111 274.096 108.048C273.944 107.984 273.811 107.895 273.697 107.781C273.59 107.667 273.504 107.534 273.441 107.382C273.378 107.23 273.346 107.066 273.346 106.888ZM280.268 100.2C280.578 99.5672 280.952 99.07 281.389 98.709C281.826 98.348 282.352 98.1675 282.966 98.1675C283.175 98.1675 283.371 98.1928 283.555 98.2435C283.745 98.2878 283.91 98.3575 284.049 98.4525L283.926 99.849C283.881 100.02 283.777 100.105 283.612 100.105C283.523 100.105 283.39 100.09 283.213 100.058C283.036 100.02 282.846 100.001 282.643 100.001C282.345 100.001 282.083 100.045 281.855 100.134C281.627 100.216 281.421 100.343 281.237 100.514C281.06 100.679 280.901 100.884 280.762 101.131C280.623 101.372 280.493 101.648 280.373 101.958V108H278.52V98.348H279.584C279.787 98.348 279.923 98.386 279.993 98.462C280.069 98.5317 280.122 98.6583 280.154 98.842L280.268 100.2ZM293.886 98.348V108H292.774C292.521 108 292.356 107.876 292.28 107.629L292.147 106.66C291.938 106.882 291.72 107.085 291.492 107.268C291.264 107.452 291.02 107.61 290.76 107.743C290.5 107.87 290.225 107.968 289.934 108.038C289.642 108.114 289.329 108.152 288.993 108.152C288.461 108.152 287.992 108.063 287.587 107.886C287.188 107.709 286.852 107.462 286.58 107.145C286.308 106.822 286.102 106.436 285.963 105.986C285.823 105.536 285.754 105.039 285.754 104.494V98.348H287.616V104.494C287.616 105.185 287.774 105.723 288.091 106.109C288.407 106.489 288.892 106.679 289.544 106.679C290.019 106.679 290.462 106.569 290.874 106.347C291.286 106.119 291.672 105.809 292.033 105.416V98.348H293.886Z" fill="black"></path> <defs> <linearGradient id="paint0_linear" x1="140.817" y1="40.6179" x2="140.817" y2="88.7903" gradientUnits="userSpaceOnUse"> <stop stop-color="#FF5937"></stop> <stop offset="1" stop-color="#FF0078"></stop> </linearGradient> <linearGradient id="paint1_linear" x1="213.852" y1="40.1892" x2="213.852" y2="86.11" gradientUnits="userSpaceOnUse"> <stop stop-color="#00A3D6"></stop> <stop offset="1" stop-color="#0078FF"></stop> </linearGradient> <linearGradient id="paint2_linear" x1="-0.70259" y1="40.1685" x2="-1.77499" y2="89.89" gradientUnits="userSpaceOnUse"> <stop stop-color="#9677C2"></stop> <stop offset="1" stop-color="#9600C2"></stop> </linearGradient> <linearGradient id="paint3_linear" x1="-3.32549" y1="40.2192" x2="-4.18296" y2="89.9453" gradientUnits="userSpaceOnUse"> <stop stop-color="#9677C2"></stop> <stop offset="1" stop-color="#9600C2"></stop> </linearGradient> <linearGradient id="paint4_linear" x1="86.3892" y1="40.3491" x2="86.3892" y2="89.7379" gradientUnits="userSpaceOnUse"> <stop stop-color="#B4D54C"></stop> <stop offset="1" stop-color="#B4D500"></stop> </linearGradient> <linearGradient id="paint5_linear" x1="86.6887" y1="40.3489" x2="86.6887" y2="89.7376" gradientUnits="userSpaceOnUse"> <stop stop-color="#B4D54C"></stop> <stop offset="1" stop-color="#B4D500"></stop> </linearGradient> <linearGradient id="paint6_linear" x1="252.22" y1="40.3491" x2="252.22" y2="91.3685" gradientUnits="userSpaceOnUse"> <stop stop-color="#B4D54C"></stop> <stop offset="1" stop-color="#B4D500"></stop> </linearGradient> <linearGradient id="paint7_linear" x1="253.28" y1="40.3489" x2="253.28" y2="91.3683" gradientUnits="userSpaceOnUse"> <stop stop-color="#B4D54C"></stop> <stop offset="1" stop-color="#B4D500"></stop> </linearGradient> <linearGradient id="paint8_linear" x1="133.434" y1="40.6177" x2="133.434" y2="89.2204" gradientUnits="userSpaceOnUse"> <stop stop-color="#FF5937"></stop> <stop offset="1" stop-color="#FF0078"></stop> </linearGradient> <linearGradient id="paint9_linear" x1="209.476" y1="40.189" x2="209.476" y2="86.11" gradientUnits="userSpaceOnUse"> <stop stop-color="#00A3D6"></stop> <stop offset="1" stop-color="#0078FF"></stop> </linearGradient> <linearGradient id="paint10_linear" x1="163.015" y1="24.3446" x2="187.923" y2="67.5226" gradientUnits="userSpaceOnUse"> <stop stop-color="#FFC900"></stop> <stop offset="1" stop-color="#FF7800"></stop> </linearGradient> <linearGradient id="paint11_linear" x1="163.104" y1="24.363" x2="188.116" y2="67.4811" gradientUnits="userSpaceOnUse"> <stop stop-color="#FFC900"></stop> <stop offset="1" stop-color="#FF7800"></stop> </linearGradient> <linearGradient id="paint12_linear" x1="39.3212" y1="43.1234" x2="54.2945" y2="86.9965" gradientUnits="userSpaceOnUse"> <stop stop-color="#FFC900"></stop> <stop offset="1" stop-color="#FF7800"></stop> </linearGradient> <linearGradient id="paint13_linear" x1="38.9265" y1="42.9851" x2="53.4103" y2="87.0256" gradientUnits="userSpaceOnUse"> <stop stop-color="#FFC900"></stop> <stop offset="1" stop-color="#FF7800"></stop> </linearGradient> </defs> </svg> 