<?xml version="1.0" encoding="UTF-8"?> <!-- Creator: CorelDRAW 2018 (64-Bit) --> <svg xmlns="http://www.w3.org/2000/svg" xmlns:xlink="http://www.w3.org/1999/xlink" xml:space="preserve" width="52.782mm" height="29.5811mm" style="shape-rendering:geometricPrecision; text-rendering:geometricPrecision; image-rendering:optimizeQuality; fill-rule:evenodd; clip-rule:evenodd" viewBox="0 0 925.69 518.79"> <defs> <style type="text/css"> <![CDATA[ .fil0 {fill:#FCE07F} ]]> </style> </defs> <g id="Слой_x0020_1"> <metadata id="CorelCorpID_0Corel-Layer"></metadata> <path class="fil0" d="M371.4 133.23c-2.57,-37.92 -16.17,-97.51 -12.16,-133.23 7.27,7.4 16.1,14.64 24.6,23.55l97.43 76.42c57.03,13.09 98.44,15.32 156.7,23.32 32.25,4.43 73.23,9.37 105.82,11.26 19.51,1.14 37.44,3.28 54.6,5.17 25.39,2.8 35.85,-4.58 48.44,13.42 40.16,57.4 74.5,178.05 78.28,253.44 1.42,28.29 0.86,31.59 -9.23,52.02 -6.39,12.95 -11.9,26.88 -21.53,40.58 -118.21,13.27 -314.54,25.9 -430.29,16.19l-355.23 -20.21c-13.8,-0.53 -41.78,0.24 -53.28,-1.42 -57.77,-8.33 -58.33,-286.25 -53.89,-353.65 3.87,-58.66 126.8,-35.03 172.13,-29.15 63.25,8.21 132.4,18.89 197.62,22.3z"></path> </g> </svg> 