<?xml version="1.0" encoding="UTF-8"?> <svg xmlns="http://www.w3.org/2000/svg" viewBox="0 0 383.2 259.41"> <defs> <style>.a{fill:#f3f3f4;}</style> </defs> <title>points</title> <path class="a" d="M1691.5,874.1a5.89,5.89,0,1,1-5.89-5.89,5.89,5.89,0,0,1,5.89,5.89m-47.16-5.89a5.9,5.9,0,1,0,5.9,5.89A5.89,5.89,0,0,0,1644.34,868.21Zm-41.27,0a5.9,5.9,0,1,0,5.9,5.89A5.89,5.89,0,0,0,1603.07,868.21Zm-41.26,0a5.9,5.9,0,1,0,5.89,5.89A5.9,5.9,0,0,0,1561.81,868.21Zm-41.27,0a5.9,5.9,0,1,0,5.89,5.89A5.9,5.9,0,0,0,1520.54,868.21Zm-41.27,0a5.9,5.9,0,1,0,5.9,5.89A5.9,5.9,0,0,0,1479.27,868.21Zm-41.27,0a5.9,5.9,0,1,0,5.9,5.89A5.89,5.89,0,0,0,1438,868.21Zm-41.27,0a5.9,5.9,0,1,0,5.9,5.89A5.9,5.9,0,0,0,1396.73,868.21Zm-41.26,0a5.9,5.9,0,1,0,5.89,5.89A5.9,5.9,0,0,0,1355.47,868.21Zm-41.27,0a5.9,5.9,0,1,0,5.89,5.89A5.9,5.9,0,0,0,1314.2,868.21Zm371.41-41.28a5.91,5.91,0,1,0,5.89,5.92A5.91,5.91,0,0,0,1685.61,826.93Zm-41.27,0a5.91,5.91,0,1,0,5.9,5.92A5.91,5.91,0,0,0,1644.34,826.93Zm-41.27,0a5.91,5.91,0,1,0,5.9,5.92A5.91,5.91,0,0,0,1603.07,826.93Zm-41.26,0a5.91,5.91,0,1,0,5.89,5.92A5.92,5.92,0,0,0,1561.81,826.93Zm-41.27,0a5.91,5.91,0,1,0,5.89,5.92A5.92,5.92,0,0,0,1520.54,826.93Zm-41.27,0a5.91,5.91,0,1,0,5.9,5.92A5.92,5.92,0,0,0,1479.27,826.93Zm-41.27,0a5.91,5.91,0,1,0,5.9,5.92A5.91,5.91,0,0,0,1438,826.93Zm-41.27,0a5.91,5.91,0,1,0,5.9,5.92A5.92,5.92,0,0,0,1396.73,826.93Zm-41.26,0a5.91,5.91,0,1,0,5.89,5.92A5.92,5.92,0,0,0,1355.47,826.93Zm-41.27,0a5.91,5.91,0,1,0,5.89,5.92A5.92,5.92,0,0,0,1314.2,826.93Zm371.41-41.24a5.88,5.88,0,1,0,5.89,5.88A5.87,5.87,0,0,0,1685.61,785.69Zm-41.27,0a5.88,5.88,0,1,0,5.9,5.88A5.87,5.87,0,0,0,1644.34,785.69Zm-41.27,0a5.88,5.88,0,1,0,5.9,5.88A5.88,5.88,0,0,0,1603.07,785.69Zm-41.26,0a5.88,5.88,0,1,0,5.89,5.88A5.88,5.88,0,0,0,1561.81,785.69Zm-41.27,0a5.88,5.88,0,1,0,5.89,5.88A5.88,5.88,0,0,0,1520.54,785.69Zm-41.27,0a5.88,5.88,0,1,0,5.9,5.88A5.88,5.88,0,0,0,1479.27,785.69Zm-41.27,0a5.88,5.88,0,1,0,5.9,5.88A5.87,5.87,0,0,0,1438,785.69Zm-41.27,0a5.88,5.88,0,1,0,5.9,5.88A5.89,5.89,0,0,0,1396.73,785.69Zm-41.26,0a5.88,5.88,0,1,0,5.89,5.88A5.88,5.88,0,0,0,1355.47,785.69Zm-41.27,0a5.88,5.88,0,1,0,5.89,5.88A5.88,5.88,0,0,0,1314.2,785.69Zm371.41-41.29a5.9,5.9,0,1,0,5.89,5.89A5.88,5.88,0,0,0,1685.61,744.4Zm-41.27,0a5.9,5.9,0,1,0,5.9,5.89A5.88,5.88,0,0,0,1644.34,744.4Zm-41.27,0a5.9,5.9,0,1,0,5.9,5.89A5.89,5.89,0,0,0,1603.07,744.4Zm-41.26,0a5.9,5.9,0,1,0,5.89,5.89A5.89,5.89,0,0,0,1561.81,744.4Zm-41.27,0a5.9,5.9,0,1,0,5.89,5.89A5.89,5.89,0,0,0,1520.54,744.4Zm-41.27,0a5.9,5.9,0,1,0,5.9,5.89A5.89,5.89,0,0,0,1479.27,744.4Zm-41.27,0a5.9,5.9,0,1,0,5.9,5.89A5.88,5.88,0,0,0,1438,744.4Zm-41.27,0a5.9,5.9,0,1,0,5.9,5.89A5.9,5.9,0,0,0,1396.73,744.4Zm-41.26,0a5.9,5.9,0,1,0,5.89,5.89A5.89,5.89,0,0,0,1355.47,744.4Zm-41.27,0a5.9,5.9,0,1,0,5.89,5.89A5.89,5.89,0,0,0,1314.2,744.4Zm371.41-41.28a5.9,5.9,0,1,0,5.89,5.92A5.91,5.91,0,0,0,1685.61,703.12Zm-41.27,0a5.9,5.9,0,1,0,5.9,5.92A5.91,5.91,0,0,0,1644.34,703.12Zm-41.27,0A5.9,5.9,0,1,0,1609,709,5.91,5.91,0,0,0,1603.07,703.12Zm-41.26,0a5.9,5.9,0,1,0,5.89,5.92A5.92,5.92,0,0,0,1561.81,703.12Zm-41.27,0a5.9,5.9,0,1,0,5.89,5.92A5.92,5.92,0,0,0,1520.54,703.12Zm-41.27,0a5.9,5.9,0,1,0,5.9,5.92A5.92,5.92,0,0,0,1479.27,703.12Zm-41.27,0a5.9,5.9,0,1,0,5.9,5.92A5.91,5.91,0,0,0,1438,703.12Zm-41.27,0a5.9,5.9,0,1,0,5.9,5.92A5.92,5.92,0,0,0,1396.73,703.12Zm-41.26,0a5.9,5.9,0,1,0,5.89,5.92A5.92,5.92,0,0,0,1355.47,703.12Zm-41.27,0a5.9,5.9,0,1,0,5.89,5.92A5.92,5.92,0,0,0,1314.2,703.12Zm371.41-41.25a5.9,5.9,0,1,0,5.89,5.88A5.88,5.88,0,0,0,1685.61,661.87Zm-41.27,0a5.9,5.9,0,1,0,5.9,5.88A5.88,5.88,0,0,0,1644.34,661.87Zm-41.27,0a5.9,5.9,0,1,0,5.9,5.88A5.89,5.89,0,0,0,1603.07,661.87Zm-41.26,0a5.9,5.9,0,1,0,5.89,5.88A5.89,5.89,0,0,0,1561.81,661.87Zm-41.27,0a5.9,5.9,0,1,0,5.89,5.88A5.89,5.89,0,0,0,1520.54,661.87Zm-41.27,0a5.9,5.9,0,1,0,5.9,5.88A5.89,5.89,0,0,0,1479.27,661.87Zm-41.27,0a5.9,5.9,0,1,0,5.9,5.88A5.88,5.88,0,0,0,1438,661.87Zm-41.27,0a5.9,5.9,0,1,0,5.9,5.88A5.89,5.89,0,0,0,1396.73,661.87Zm-41.26,0a5.9,5.9,0,1,0,5.89,5.88A5.89,5.89,0,0,0,1355.47,661.87Zm-41.27,0a5.9,5.9,0,1,0,5.89,5.88A5.89,5.89,0,0,0,1314.2,661.87Zm371.41-29.48a5.9,5.9,0,1,0-5.89-5.88A5.9,5.9,0,0,0,1685.61,632.39Zm-41.27-11.8a5.9,5.9,0,1,0,5.9,5.92A5.91,5.91,0,0,0,1644.34,620.59Zm-41.27,0a5.9,5.9,0,1,0,5.9,5.92A5.91,5.91,0,0,0,1603.07,620.59Zm-41.26,0a5.9,5.9,0,1,0,5.89,5.92A5.92,5.92,0,0,0,1561.81,620.59Zm-41.27,0a5.9,5.9,0,1,0,5.89,5.92A5.92,5.92,0,0,0,1520.54,620.59Zm-41.27,0a5.9,5.9,0,1,0,5.9,5.92A5.92,5.92,0,0,0,1479.27,620.59Zm-41.27,0a5.9,5.9,0,1,0,5.9,5.92A5.91,5.91,0,0,0,1438,620.59Zm-41.27,0a5.9,5.9,0,1,0,5.9,5.92A5.92,5.92,0,0,0,1396.73,620.59Zm-41.26,0a5.9,5.9,0,1,0,5.89,5.92A5.92,5.92,0,0,0,1355.47,620.59Zm-41.27,0a5.9,5.9,0,1,0,5.89,5.92A5.92,5.92,0,0,0,1314.2,620.59Z" transform="translate(-1308.3 -620.59)"></path> </svg> 