<?xml version="1.0" encoding="UTF-8"?> <svg xmlns="http://www.w3.org/2000/svg" viewBox="0 0 120.05 81.26"> <defs> <style>.a{fill:#fff;}</style> </defs> <title>points_white</title> <path class="a" d="M1560.35,789a1.85,1.85,0,1,1-1.85-1.85,1.85,1.85,0,0,1,1.85,1.85m-14.78-1.85a1.85,1.85,0,1,0,1.85,1.85A1.85,1.85,0,0,0,1545.57,787.16Zm-12.93,0a1.85,1.85,0,1,0,1.85,1.85A1.84,1.84,0,0,0,1532.64,787.16Zm-12.92,0a1.85,1.85,0,1,0,1.84,1.85A1.85,1.85,0,0,0,1519.72,787.16Zm-12.93,0a1.85,1.85,0,1,0,1.84,1.85A1.85,1.85,0,0,0,1506.79,787.16Zm-12.93,0a1.85,1.85,0,1,0,1.85,1.85A1.85,1.85,0,0,0,1493.86,787.16Zm-12.93,0a1.85,1.85,0,1,0,1.85,1.85A1.85,1.85,0,0,0,1480.93,787.16Zm-12.93,0a1.85,1.85,0,1,0,1.85,1.85A1.84,1.84,0,0,0,1468,787.16Zm-12.92,0a1.85,1.85,0,1,0,1.84,1.85A1.85,1.85,0,0,0,1455.08,787.16Zm-12.93,0A1.85,1.85,0,1,0,1444,789,1.85,1.85,0,0,0,1442.15,787.16Zm116.35-12.93a1.85,1.85,0,1,0,1.85,1.86A1.85,1.85,0,0,0,1558.5,774.23Zm-12.93,0a1.85,1.85,0,1,0,1.85,1.86A1.85,1.85,0,0,0,1545.57,774.23Zm-12.93,0a1.85,1.85,0,1,0,1.85,1.86A1.85,1.85,0,0,0,1532.64,774.23Zm-12.92,0a1.85,1.85,0,1,0,1.84,1.86A1.85,1.85,0,0,0,1519.72,774.23Zm-12.93,0a1.85,1.85,0,1,0,1.84,1.86A1.85,1.85,0,0,0,1506.79,774.23Zm-12.93,0a1.85,1.85,0,1,0,1.85,1.86A1.85,1.85,0,0,0,1493.86,774.23Zm-12.93,0a1.85,1.85,0,1,0,1.85,1.86A1.85,1.85,0,0,0,1480.93,774.23Zm-12.93,0a1.85,1.85,0,1,0,1.85,1.86A1.85,1.85,0,0,0,1468,774.23Zm-12.92,0a1.85,1.85,0,1,0,1.84,1.86A1.85,1.85,0,0,0,1455.08,774.23Zm-12.93,0a1.85,1.85,0,1,0,1.84,1.86A1.85,1.85,0,0,0,1442.15,774.23Zm116.35-12.92a1.85,1.85,0,1,0,1.85,1.84A1.84,1.84,0,0,0,1558.5,761.31Zm-12.93,0a1.85,1.85,0,1,0,1.85,1.84A1.84,1.84,0,0,0,1545.57,761.31Zm-12.93,0a1.85,1.85,0,1,0,1.85,1.84A1.84,1.84,0,0,0,1532.64,761.31Zm-12.92,0a1.85,1.85,0,1,0,1.84,1.84A1.84,1.84,0,0,0,1519.72,761.31Zm-12.93,0a1.85,1.85,0,1,0,1.84,1.84A1.84,1.84,0,0,0,1506.79,761.31Zm-12.93,0a1.85,1.85,0,1,0,1.85,1.84A1.84,1.84,0,0,0,1493.86,761.31Zm-12.93,0a1.85,1.85,0,1,0,1.85,1.84A1.84,1.84,0,0,0,1480.93,761.31Zm-12.93,0a1.85,1.85,0,1,0,1.85,1.84A1.84,1.84,0,0,0,1468,761.31Zm-12.92,0a1.85,1.85,0,1,0,1.84,1.84A1.84,1.84,0,0,0,1455.08,761.31Zm-12.93,0a1.85,1.85,0,1,0,1.84,1.84A1.84,1.84,0,0,0,1442.15,761.31Zm116.35-12.93a1.85,1.85,0,1,0,1.85,1.84A1.84,1.84,0,0,0,1558.5,748.38Zm-12.93,0a1.85,1.85,0,1,0,1.85,1.84A1.84,1.84,0,0,0,1545.57,748.38Zm-12.93,0a1.85,1.85,0,1,0,1.85,1.84A1.84,1.84,0,0,0,1532.64,748.38Zm-12.92,0a1.85,1.85,0,1,0,1.84,1.84A1.84,1.84,0,0,0,1519.72,748.38Zm-12.93,0a1.85,1.85,0,1,0,1.84,1.84A1.84,1.84,0,0,0,1506.79,748.38Zm-12.93,0a1.85,1.85,0,1,0,1.85,1.84A1.84,1.84,0,0,0,1493.86,748.38Zm-12.93,0a1.85,1.85,0,1,0,1.85,1.84A1.84,1.84,0,0,0,1480.93,748.38Zm-12.93,0a1.85,1.85,0,1,0,1.85,1.84A1.84,1.84,0,0,0,1468,748.38Zm-12.92,0a1.85,1.85,0,1,0,1.84,1.84A1.84,1.84,0,0,0,1455.08,748.38Zm-12.93,0a1.85,1.85,0,1,0,1.84,1.84A1.84,1.84,0,0,0,1442.15,748.38Zm116.35-12.94a1.85,1.85,0,1,0,1.85,1.86A1.86,1.86,0,0,0,1558.5,735.44Zm-12.93,0a1.85,1.85,0,1,0,1.85,1.86A1.86,1.86,0,0,0,1545.57,735.44Zm-12.93,0a1.85,1.85,0,1,0,1.85,1.86A1.85,1.85,0,0,0,1532.64,735.44Zm-12.92,0a1.85,1.85,0,1,0,0,3.7,1.85,1.85,0,0,0,0-3.7Zm-12.93,0a1.85,1.85,0,1,0,0,3.7,1.85,1.85,0,0,0,0-3.7Zm-12.93,0a1.85,1.85,0,1,0,1.85,1.86A1.86,1.86,0,0,0,1493.86,735.44Zm-12.93,0a1.85,1.85,0,1,0,1.85,1.86A1.86,1.86,0,0,0,1480.93,735.44Zm-12.93,0a1.85,1.85,0,1,0,1.85,1.86A1.85,1.85,0,0,0,1468,735.44Zm-12.92,0a1.85,1.85,0,1,0,0,3.7,1.85,1.85,0,0,0,0-3.7Zm-12.93,0a1.85,1.85,0,1,0,0,3.7,1.85,1.85,0,0,0,0-3.7Zm116.35-12.92a1.85,1.85,0,1,0,1.85,1.85A1.85,1.85,0,0,0,1558.5,722.52Zm-12.93,0a1.85,1.85,0,1,0,1.85,1.85A1.85,1.85,0,0,0,1545.57,722.52Zm-12.93,0a1.85,1.85,0,1,0,1.85,1.85A1.84,1.84,0,0,0,1532.64,722.52Zm-12.92,0a1.85,1.85,0,1,0,1.84,1.85A1.85,1.85,0,0,0,1519.72,722.52Zm-12.93,0a1.85,1.85,0,1,0,1.84,1.85A1.85,1.85,0,0,0,1506.79,722.52Zm-12.93,0a1.85,1.85,0,1,0,1.85,1.85A1.85,1.85,0,0,0,1493.86,722.52Zm-12.93,0a1.85,1.85,0,1,0,1.85,1.85A1.85,1.85,0,0,0,1480.93,722.52Zm-12.93,0a1.85,1.85,0,1,0,1.85,1.85A1.84,1.84,0,0,0,1468,722.52Zm-12.92,0a1.85,1.85,0,1,0,1.84,1.85A1.85,1.85,0,0,0,1455.08,722.52Zm-12.93,0a1.85,1.85,0,1,0,1.84,1.85A1.85,1.85,0,0,0,1442.15,722.52Zm116.35-9.23a1.85,1.85,0,1,0-1.85-1.85A1.86,1.86,0,0,0,1558.5,713.29Zm-12.93-3.7a1.85,1.85,0,1,0,1.85,1.85A1.85,1.85,0,0,0,1545.57,709.59Zm-12.93,0a1.85,1.85,0,1,0,1.85,1.85A1.84,1.84,0,0,0,1532.64,709.59Zm-12.92,0a1.85,1.85,0,1,0,1.84,1.85A1.85,1.85,0,0,0,1519.72,709.59Zm-12.93,0a1.85,1.85,0,1,0,1.84,1.85A1.85,1.85,0,0,0,1506.79,709.59Zm-12.93,0a1.85,1.85,0,1,0,1.85,1.85A1.85,1.85,0,0,0,1493.86,709.59Zm-12.93,0a1.85,1.85,0,1,0,1.85,1.85A1.85,1.85,0,0,0,1480.93,709.59Zm-12.93,0a1.85,1.85,0,1,0,1.85,1.85A1.84,1.84,0,0,0,1468,709.59Zm-12.92,0a1.85,1.85,0,1,0,1.84,1.85A1.85,1.85,0,0,0,1455.08,709.59Zm-12.93,0a1.85,1.85,0,1,0,1.84,1.85A1.85,1.85,0,0,0,1442.15,709.59Z" transform="translate(-1440.3 -709.59)"></path> </svg> 