<?xml version="1.0" encoding="UTF-8"?> <svg xmlns="http://www.w3.org/2000/svg" id="Слой_1" data-name="Слой 1" viewBox="0 0 265.92 55.39"> <defs> <style>.cls-1,.cls-2{fill:#e63536;}.cls-1,.cls-3{fill-rule:evenodd;}.cls-3,.cls-4{fill:#3b3a39;}</style> </defs> <title>Practicant_logo_black_</title> <path class="cls-1" d="M512.14,383.73c1.39,1.43,2.61,2.73,3.84,4,1.37,1.47,2.4,2.57,3.81,4,0.51,5.46,2.4,10.57,6.76,14.08a16.92,16.92,0,0,0,11.23,3.75l0.9-.07c5.81-.62,9.6-3,11.91-6.44s3.26-8.3,3.22-13.6c0-4.1,0-8.14,0-12.21l0-4.37,2.22-3.4h-7.21a9.2,9.2,0,0,0-3.7.5,6.24,6.24,0,0,0-4,3.76,13.23,13.23,0,0,0-.6,5.27c9.63,2.3,12.8,12.45,8.94,20.94l-2.39-1.08c3.68-8.12.07-16.39-9.06-17.56L538,380.28a17.11,17.11,0,0,1,.7-7.44,8.79,8.79,0,0,1,5.59-5.33,11.26,11.26,0,0,1,4.61-.66c4,0,8.09,0,12.12,0l-4.49,6.88,0,3.59c0,4.06-.07,8.09,0,12.18,0,5.79-1,11.06-3.67,15.09s-7.16,6.9-13.85,7.61c-0.34,0-.7.06-1.07,0.08a19.6,19.6,0,0,1-13-4.34c-4.55-3.66-7.05-9.32-7.7-15-1.25-1.29-2-2.13-3.14-3.32s-2.48-2.65-3.81-4Z" transform="translate(-508.31 -366.85)"></path> <path class="cls-1" d="M530.08,391v8.19h9a4.1,4.1,0,0,0,0-8.19h-9Zm3.1-2.53h6a6.66,6.66,0,0,1,0,13.31h-9.08v12.6h-2.62V391h-5.15l-2.46-2.53h13.33Z" transform="translate(-508.31 -366.85)"></path> <path class="cls-1" d="M546.23,419.14h8.93l-9.33-14.59a11.57,11.57,0,0,0-7-20.95H508.31l2.46,2.55h27c2.82,0,4.92.22,7.16,2.15,4.53,3.9,4.5,12-2.67,15.3v0.2l8.2,12.8H547.7l0,0-7.92-12.46h-7.42v12.38h-4.92l1.76,2.65H535V406.72h3.25Z" transform="translate(-508.31 -366.85)"></path> <circle class="cls-2" cx="39.28" cy="7.69" r="1.91"></circle> <path class="cls-1" d="M525.68,401.71q-0.42-.57-0.8-1.2a22.64,22.64,0,0,1-2.71-7.13h2.73a22.26,22.26,0,0,0,.77,2.64v5.7Z" transform="translate(-508.31 -366.85)"></path> <path class="cls-3" d="M672.91,394.68V398h-5.06v12.7h0v3.71h-4.16V398h-5.08v-3.34h14.29Z" transform="translate(-508.31 -366.85)"></path> <polygon class="cls-3" points="194.51 36.12 202.01 27.84 207.76 27.84 199.93 36.34 208.1 47.59 202.53 47.59 194.51 36.12"></polygon> <rect class="cls-4" x="189.23" y="27.84" width="4.38" height="19.76"></rect> <path class="cls-3" d="M679.95,398.4v16h-4.16V394.68h4.16v3.71h0Zm9.88-3.71H694v19.75h-4.16V394.68Z" transform="translate(-508.31 -366.85)"></path> <polygon class="cls-3" points="184.36 30.11 171.63 47.59 168.73 45.27 181.52 27.84 184.36 30.11"></polygon> <polygon class="cls-3" points="134.72 36.12 142.22 27.84 147.98 27.84 140.14 36.34 148.31 47.59 142.74 47.59 134.72 36.12"></polygon> <rect class="cls-4" x="129.69" y="27.84" width="4.38" height="19.76"></rect> <path class="cls-3" d="M624.55,411.21c2.64,0,5.51-1.6,5.51-4.12s0-5,0-7.56a4.24,4.24,0,0,1-.44-0.32,4.39,4.39,0,0,0-.68-0.45,6.38,6.38,0,0,0-4.14-.41c-7.06,1.42-6.11,12.86-.27,12.86h0ZM634.21,398v16.41h-3.79V411.8a9.25,9.25,0,0,1-7.14,2.93c-9,0-11.08-16.88.1-19.67a12.13,12.13,0,0,1,5.94-.07,14.54,14.54,0,0,1,2.1.74,10.8,10.8,0,0,1,1.69.93,6.61,6.61,0,0,1,1.1.91V398Z" transform="translate(-508.31 -366.85)"></path> <path class="cls-3" d="M603.85,411a6.46,6.46,0,0,1,0-12.92c3.16,0,5.64,2.86,5.64,6.46S607,411,603.85,411h0Zm0.37-16.64a10.1,10.1,0,0,0-6.76,2.56l-0.74-2.27h-3v27.55h4.16v-9.77a10.15,10.15,0,0,0,6.39,2.26c4.86,0,9.43-4.57,9.43-10.17S609.08,394.39,604.22,394.39Z" transform="translate(-508.31 -366.85)"></path> <polygon class="cls-3" points="64.38 25.72 64.38 47.59 60 47.59 60 21.64 64.38 21.64 64.38 21.64 77.27 21.64 77.27 21.64 81.65 21.64 81.65 47.59 77.27 47.59 77.27 25.72 64.38 25.72"></polygon> <path class="cls-3" d="M774.23,394.68V398h-5.06v12.7h0v3.71H765V398h-5.08v-3.34h14.29Z" transform="translate(-508.31 -366.85)"></path> <path class="cls-3" d="M742.59,398.4v16h-4.16V394.68h4.16v3.71h0Zm9.88-3.71h4.16v19.75h-4.16V394.68Z" transform="translate(-508.31 -366.85)"></path> <polygon class="cls-3" points="244.83 39.5 233.6 39.57 233.6 35.86 244.83 35.86 244.83 39.5"></polygon> <path class="cls-3" d="M725.09,411.21c2.64,0,5.51-1.6,5.51-4.12s0-5,0-7.56a4.26,4.26,0,0,1-.44-0.32,4.41,4.41,0,0,0-.68-0.45,6.38,6.38,0,0,0-4.14-.41c-7.06,1.42-6.11,12.86-.27,12.86h0ZM734.76,398v16.41H731V411.8a9.25,9.25,0,0,1-7.14,2.93c-9,0-11.08-16.88.1-19.67a12.13,12.13,0,0,1,5.94-.07,14.57,14.57,0,0,1,2.1.74,10.82,10.82,0,0,1,1.69.93,6.63,6.63,0,0,1,1.1.91V398Z" transform="translate(-508.31 -366.85)"></path> </svg> 