<?xml version="1.0" encoding="UTF-8"?> <!-- Creator: CorelDRAW 2018 (64-Bit) --> <svg xmlns="http://www.w3.org/2000/svg" xmlns:xlink="http://www.w3.org/1999/xlink" xml:space="preserve" width="18.0566mm" height="16.4702mm" style="shape-rendering:geometricPrecision; text-rendering:geometricPrecision; image-rendering:optimizeQuality; fill-rule:evenodd; clip-rule:evenodd" viewBox="0 0 343.09 312.95"> <defs> <style type="text/css"> <![CDATA[ .fil1 {fill:#FCE07F;fill-rule:nonzero} .fil0 {fill:white;fill-rule:nonzero} ]]> </style> </defs> <g id="Слой_x0020_1"> <metadata id="CorelCorpID_0Corel-Layer"></metadata> <path class="fil0" d="M205.67 211.01c-31.35,-9.23 -64.53,-18.82 -95.96,-27.58 7.7,-28.52 15.81,-58.98 23.46,-87.21 30.26,9.38 62.48,18.94 93.2,27.97 -6.75,28.33 -13.77,58.41 -20.7,86.83zm133.57 -65.86c-25.23,-7.79 -60.46,-18.03 -98.69,-29.24 7.41,-30.81 14.45,-58.8 20.6,-79.19 2.22,-7.36 -8.98,-11.56 -11.21,-4.18 -6.19,20.53 -13.29,48.85 -20.78,80.03 -30.65,-9.02 -62.75,-18.54 -92.86,-27.88 7.31,-26.87 14.06,-51.05 19.41,-68.55 2.25,-7.36 -8.96,-11.56 -11.21,-4.19 -5.39,17.64 -12.2,42.07 -19.58,69.19 -33.8,-10.61 -64.4,-20.84 -86.65,-29.62 -7.2,-2.83 -11.34,8.39 -4.18,11.21 22.47,8.87 53.49,19.22 87.7,29.95 -7.67,28.38 -15.83,58.98 -23.54,87.57 -35.45,-9.8 -67.98,-18.32 -92.02,-23.78 -7.52,-1.7 -8.57,10.23 -1.16,11.91 23.5,5.33 55.33,13.69 90.09,23.3 -7.84,28.89 -15.1,55.01 -20.79,73.61 -2.25,7.36 8.95,11.55 11.21,4.18 5.75,-18.81 13.11,-45.32 21.05,-74.6 31.48,8.8 64.8,18.44 96.22,27.72 -7.92,32.01 -15.64,61.18 -22.64,82.19 -2.43,7.32 8.77,11.5 11.21,4.18 7.03,-21.13 14.82,-50.62 22.82,-83 35.24,10.46 67.39,20.24 90.75,27.5 7.35,2.28 11.54,-8.92 4.18,-11.21 -23.77,-7.39 -56.39,-17.3 -92.09,-27.87 6.92,-28.44 13.94,-58.54 20.69,-86.85 37.7,11.05 72.38,21.14 97.3,28.84 7.35,2.26 11.55,-8.93 4.18,-11.21z"></path> <path class="fil1" d="M147.38 131.55c3.33,7.51 7.12,14.77 11.35,21.77 -5.3,3.6 -10.33,7.13 -14.48,10.42 -6.03,4.78 1.09,14.39 7.15,9.59 3.98,-3.15 8.8,-6.54 13.86,-9.99 4.72,6.75 9.88,13.21 15.53,19.25 5.24,5.61 14.43,-2.06 9.14,-7.71 -5.39,-5.76 -10.28,-11.86 -14.75,-18.25 7.85,-5.27 15.62,-10.53 21.58,-15.33 5.98,-4.82 -1.12,-14.45 -7.15,-9.6 -5.8,4.68 -13.32,9.79 -20.95,14.91 -3.89,-6.47 -7.38,-13.2 -10.47,-20.18 -3.12,-7.04 -13.94,-1.94 -10.82,5.11z"></path> <path class="fil1" d="M160.61 233.94c-5.45,1.69 -12.47,4.79 -19.73,8.2 -1.53,-4.54 -2.9,-9.11 -4.24,-13.6 -2.18,-7.3 -13.98,-5.33 -11.79,2.05 1.67,5.59 3.38,11.19 5.32,16.69 -6.73,3.25 -13.11,6.32 -18.04,8.31 -7.14,2.89 -2.02,13.7 5.11,10.81 4.61,-1.87 10.75,-4.89 17.23,-8.08 2.35,5.43 5.08,10.7 8.33,15.72 4.2,6.45 13.29,-1.32 9.14,-7.72 -2.69,-4.13 -4.94,-8.58 -6.9,-13.17 6.55,-3.14 12.83,-5.94 17.62,-7.43 7.26,-2.25 5.31,-14.06 -2.04,-11.78z"></path> <path class="fil1" d="M66.53 42.52c5.45,-1.69 12.48,-4.79 19.74,-8.21 1.52,4.54 2.9,9.11 4.24,13.61 2.18,7.3 13.98,5.34 11.78,-2.04 -1.66,-5.59 -3.38,-11.19 -5.31,-16.7 6.73,-3.25 13.11,-6.32 18.04,-8.31 7.14,-2.89 2.02,-13.7 -5.11,-10.82 -4.62,1.87 -10.75,4.89 -17.23,8.09 -2.36,-5.43 -5.07,-10.71 -8.33,-15.72 -4.19,-6.45 -13.29,1.32 -9.14,7.71 2.7,4.14 4.94,8.58 6.9,13.17 -6.55,3.14 -12.83,5.95 -17.63,7.43 -7.26,2.26 -5.31,14.07 2.04,11.79z"></path> <path class="fil1" d="M288.85 68.73c3.96,5.52 8.93,12.36 14.15,19.35 -5.62,4.69 -11.15,9.11 -16,12.59 -6.18,4.45 -0.47,14.96 5.79,10.47 5.29,-3.8 11.29,-8.57 17.37,-13.61 4.97,6.45 9.87,12.55 14.07,17.33 5.1,5.78 13.64,-2.6 8.55,-8.36 -4,-4.53 -8.72,-10.42 -13.51,-16.64 5.93,-5.08 11.64,-10.1 16.48,-14.36 5.78,-5.1 -2.59,-13.64 -8.36,-8.55 -4.47,3.94 -9.78,8.65 -15.32,13.43 -4.73,-6.33 -9.21,-12.48 -12.76,-17.42 -4.44,-6.18 -14.96,-0.47 -10.46,5.79z"></path> <path class="fil0" d="M256.45 300.66c-15.83,-3.37 -28.49,-29.69 -9.4,-37.99 10.8,-4.69 19.31,6.68 21.05,16.32 1.34,7.43 -0,24.15 -11.65,21.67zm-12.64 -49.62c-31.15,13.54 -17.63,65.98 16.55,61.65 17.25,-2.18 23.36,-22.98 19.07,-37.66 -4.32,-14.76 -18.37,-31.5 -35.63,-24z"></path> <path class="fil0" d="M285.9 171.27c7.54,2.42 9.35,8.85 7.69,16.15 -1.45,6.41 -5.91,14.08 -12.34,16.53 -4.78,1.83 -8.52,-1.33 -11.3,-5.5 -0.12,-0.66 -0.34,-1.34 -0.75,-2.04 -7.22,-12.08 0.81,-30.24 16.7,-25.15zm-31.46 22.78c5.04,12.77 16.4,27.56 31.92,20.73 11.1,-4.89 18.95,-17.94 19.67,-29.86 0.89,-14.48 -8.72,-25.45 -23.4,-26.23 -18,-0.94 -29.74,14.86 -28.18,30.79 -0.57,1.32 -0.68,2.89 -0.01,4.58z"></path> <path class="fil0" d="M36.59 244.31c-4.78,1.83 -8.52,-1.33 -11.3,-5.5 -0.12,-0.65 -0.34,-1.33 -0.75,-2.03 -7.22,-12.07 0.8,-30.24 16.7,-25.15 7.54,2.43 9.36,8.85 7.7,16.15 -1.46,6.42 -5.92,14.08 -12.35,16.54zm1.39 -45.26c-18.01,-0.94 -29.74,14.85 -28.19,30.78 -0.56,1.32 -0.67,2.89 -0.01,4.58 5.04,12.76 16.39,27.55 31.92,20.73 11.11,-4.89 18.95,-17.94 19.68,-29.86 0.89,-14.48 -8.72,-25.45 -23.4,-26.22z"></path> </g> </svg> 