<?xml version="1.0" encoding="UTF-8"?> <svg xmlns="http://www.w3.org/2000/svg" viewBox="0 0 324.01 61.47"> <defs> <style>.a{fill:#fff;}</style> </defs> <title>zigzag_white</title> <path class="a" d="M1520.45,847.66l-41.46-13,2.57-3.22,38.89,12.17,40.18-12.56,40.18,12.56L1641,831.08l40.19,12.56,40.18-12.56,40.18,12.56,38.89-12.17,2.57,3.22-41.46,13-40.18-12.57-40.18,12.57L1641,835.09l-40.18,12.57-40.18-12.57Zm241.09,5-40.18-12.57-40.18,12.57L1641,840.05l-40.18,12.57-40.18-12.57-40.18,12.57-38.89-12.17-2.57,3.22,41.46,13,40.18-12.57,40.18,12.57L1641,844.07l40.19,12.57,40.18-12.57,40.18,12.57,41.46-13-2.57-3.22Zm0,9L1721.36,849l-40.18,12.57L1641,849l-40.18,12.57L1560.63,849l-40.18,12.57-38.89-12.17-2.57,3.22,41.46,13,40.18-12.56,40.18,12.56L1641,853.05l40.19,12.56,40.18-12.56,40.18,12.56,41.46-13-2.57-3.22Zm0,9L1721.36,858l-40.18,12.57L1641,858l-40.18,12.57L1560.63,858l-40.18,12.57-38.89-12.17-2.57,3.21,41.46,13L1560.63,862l40.18,12.57L1641,862l40.19,12.57L1721.36,862l40.18,12.57,41.46-13-2.57-3.21Zm0,9L1721.36,867l-40.18,12.57L1641,867l-40.18,12.57L1560.63,867l-40.18,12.57-38.89-12.17L1479,870.6l41.46,13L1560.63,871l40.18,12.57L1641,871l40.19,12.57L1721.36,871l40.18,12.57,41.46-13-2.57-3.21Zm0,9L1721.36,876l-40.18,12.56L1641,876l-40.18,12.56L1560.63,876l-40.18,12.56-38.89-12.17-2.57,3.22,41.46,13L1560.63,880l40.18,12.57L1641,880l40.19,12.57L1721.36,880l40.18,12.57,41.46-13-2.57-3.22Z" transform="translate(-1478.99 -831.08)"></path> </svg> 